<?xml version="1.0" encoding="UTF-8" standalone="no"?>
<!-- Created with Inkscape (http://www.inkscape.org/) -->

<svg
   xmlns:dc="http://purl.org/dc/elements/1.1/"
   xmlns:cc="http://creativecommons.org/ns#"
   xmlns:rdf="http://www.w3.org/1999/02/22-rdf-syntax-ns#"
   xmlns:svg="http://www.w3.org/2000/svg"
   xmlns="http://www.w3.org/2000/svg"
   xmlns:sodipodi="http://sodipodi.sourceforge.net/DTD/sodipodi-0.dtd"
   xmlns:inkscape="http://www.inkscape.org/namespaces/inkscape"
   width="1189mm"
   height="841mm"
   viewBox="0 0 4212.9921 2979.9213"
   id="svg2"
   version="1.1"
   inkscape:version="0.91 r13725"
   sodipodi:docname="Tiny-max-2.5.svg">
  <defs
     id="defs4">
    <pattern
       y="0"
       x="0"
       height="6"
       width="6"
       patternUnits="userSpaceOnUse"
       id="EMFhbasepattern" />
  </defs>
  <sodipodi:namedview
     id="base"
     pagecolor="#ffffff"
     bordercolor="#666666"
     borderopacity="1.0"
     inkscape:pageopacity="0.0"
     inkscape:pageshadow="2"
     inkscape:zoom="1.2048601"
     inkscape:cx="722.10189"
     inkscape:cy="1064.5748"
     inkscape:document-units="mm"
     inkscape:current-layer="layer1"
     showgrid="false"
     inkscape:window-width="1920"
     inkscape:window-height="1057"
     inkscape:window-x="-8"
     inkscape:window-y="-8"
     inkscape:window-maximized="1"
     inkscape:snap-bbox="true"
     inkscape:bbox-paths="true"
     inkscape:bbox-nodes="true"
     inkscape:snap-bbox-edge-midpoints="true"
     inkscape:snap-bbox-midpoints="true"
     showguides="true"
     inkscape:guide-bbox="true"
     inkscape:snap-object-midpoints="true"
     inkscape:snap-center="true" />
  <metadata
     id="metadata7">
    <rdf:RDF>
      <cc:Work
         rdf:about="">
        <dc:format>image/svg+xml</dc:format>
        <dc:type
           rdf:resource="http://purl.org/dc/dcmitype/StillImage" />
        <dc:title></dc:title>
      </cc:Work>
    </rdf:RDF>
  </metadata>
  <g
     inkscape:label="Layer 1"
     inkscape:groupmode="layer"
     id="layer1"
     transform="translate(0,1927.5591)">
    <path
       d="M 131.21435,314.43415"
       style="fill:none;stroke:#000000;stroke-width:0.31889793;stroke-linecap:round;stroke-linejoin:round"
       id="path4570"
       inkscape:connector-curvature="0" />
    <path
       d="m 274.20351,180.90175 c 2.34864,0 4.25169,1.9043 4.25169,4.253 0,2.3486 -1.90305,4.2504 -4.25169,4.2504 -2.34864,0 -4.25169,-1.9018 -4.25169,-4.2504 0,-2.3487 1.90305,-4.253 4.25169,-4.253"
       style="fill:none;stroke:#000000;stroke-width:0.31889793;stroke-linecap:round;stroke-linejoin:round"
       id="path5036"
       inkscape:connector-curvature="0" />
    <path
       d="m 200.82398,180.90175 c 2.34864,0 4.25169,1.9043 4.25169,4.253 0,2.3486 -1.90305,4.2504 -4.25169,4.2504 -2.34864,0 -4.25169,-1.9018 -4.25169,-4.2504 0,-2.3487 1.90305,-4.253 4.25169,-4.253"
       style="fill:none;stroke:#000000;stroke-width:0.31889793;stroke-linecap:round;stroke-linejoin:round"
       id="path5038"
       inkscape:connector-curvature="0" />
    <path
       d="m 218.71199,213.46875 c 0,0 -6.37794,0 -6.37794,0 -1.95696,0 -3.5433,1.5864 -3.5433,3.5433 0,0 0,9.2127 0,9.2127 0,1.9569 1.58643,3.5433 3.5433,3.5433 0,0 9.96575,0 9.96575,0 0,0 30.42793,0 30.42793,0 0,0 9.96577,0 9.96577,0 1.95687,0 3.5433,-1.5864 3.5433,-3.5433 0,0 0,-9.2127 0,-9.2127 0,-1.9569 -1.58643,-3.5433 -3.5433,-3.5433 0,0 -6.37795,0 -6.37795,0 -1.95696,0 -3.5433,-1.5864 -3.5433,-3.5433 0,0 0,-9.3089 0,-9.3089 0,0 0,-30.1853 0,-30.1853 0,0 8e-5,-0.1018 8e-5,-0.1018 0,0 -8e-5,0 -8e-5,0 0,0 -30.51689,0 -30.51689,0 0,0 -8e-5,0 -8e-5,0 0,0 8e-5,0.1018 8e-5,0.1018 0,0 0,30.1853 0,30.1853 0,0 0,9.3089 0,9.3089 0,1.9569 -1.58643,3.5433 -3.5433,3.5433"
       style="fill:none;stroke:#000000;stroke-width:0.31889793;stroke-linecap:round;stroke-linejoin:round"
       id="path5040"
       inkscape:connector-curvature="0" />
    <path
       style="opacity:0.15100002;fill:#87efb0;fill-opacity:0.12426034;stroke:none;stroke-width:7;stroke-miterlimit:4;stroke-dasharray:none;stroke-opacity:1"
       d="m 450.1118,359.62513 0,644.88187 c 0,7.852 -6.32126,14.1732 -14.17323,14.1732 l -396.85038,0 c -7.85197,0 -14.17323,-6.3212 -14.17323,-14.1732 l 0,-644.88187 c 0,-7.85197 6.32126,-14.17323 14.17323,-14.17323 l 396.85038,0 c 7.85197,0 14.17323,6.32126 14.17323,14.17323 z"
       id="rect6692"
       inkscape:connector-curvature="0" />
    <path
       inkscape:connector-curvature="0"
       id="path5509"
       d="m 172.31652,579.08716 a 5.6692915,5.6692915 0 0 1 -5.6693,5.66929 5.6692915,5.6692915 0 0 1 -5.66929,-5.66929 5.6692915,5.6692915 0 0 1 5.66929,-5.66929 5.6692915,5.6692915 0 0 1 5.6693,5.66929 z"
       style="opacity:0.15100002;fill:none;fill-opacity:1;stroke:#000000;stroke-width:2;stroke-miterlimit:4;stroke-dasharray:none;stroke-opacity:1" />
    <path
       inkscape:connector-curvature="0"
       id="circle5511"
       d="m 221.03704,502.90607 a 5.6692915,5.6692915 0 0 1 -5.6693,5.66929 5.6692915,5.6692915 0 0 1 -5.66929,-5.66929 5.6692915,5.6692915 0 0 1 5.66929,-5.66929 5.6692915,5.6692915 0 0 1 5.6693,5.66929 z"
       style="opacity:0.15100002;fill:none;fill-opacity:1;stroke:#000000;stroke-width:2;stroke-miterlimit:4;stroke-dasharray:none;stroke-opacity:1" />
    <path
       inkscape:connector-curvature="0"
       id="circle5513"
       d="m 314.04882,579.08716 a 5.6692915,5.6692915 0 0 1 -5.6693,5.66929 5.6692915,5.6692915 0 0 1 -5.66929,-5.66929 5.6692915,5.6692915 0 0 1 5.66929,-5.66929 5.6692915,5.6692915 0 0 1 5.6693,5.66929 z"
       style="opacity:0.15100002;fill:none;fill-opacity:1;stroke:#000000;stroke-width:2;stroke-miterlimit:4;stroke-dasharray:none;stroke-opacity:1" />
    <path
       id="path8081"
       d="m 851.46022,600.92418 a 4.8720474,4.8720474 0 0 1 4.87205,-4.87204 4.8720474,4.8720474 0 0 1 4.87205,4.87204 4.8720474,4.8720474 0 0 1 -4.87205,4.87205 4.8720474,4.8720474 0 0 1 -4.87205,-4.87205 z"
       style="opacity:0.15100002;fill:#87efb0;fill-opacity:0.12426034;stroke:none;stroke-width:7;stroke-miterlimit:4;stroke-dasharray:none;stroke-opacity:1"
       inkscape:connector-curvature="0" />
    <path
       id="path8083"
       d="m 645.94844,600.92418 a 4.8720474,4.8720474 0 0 1 4.87204,-4.87204 4.8720474,4.8720474 0 0 1 4.87205,4.87204 4.8720474,4.8720474 0 0 1 -4.87205,4.87205 4.8720474,4.8720474 0 0 1 -4.87204,-4.87205 z"
       style="opacity:0.15100002;fill:#87efb0;fill-opacity:0.12426034;stroke:none;stroke-width:7;stroke-miterlimit:4;stroke-dasharray:none;stroke-opacity:1"
       inkscape:connector-curvature="0" />
    <path
       id="path8085"
       d="m 645.94844,427.30215 a 4.8720474,4.8720474 0 0 1 4.87204,-4.87205 4.8720474,4.8720474 0 0 1 4.87205,4.87205 4.8720474,4.8720474 0 0 1 -4.87205,4.87204 4.8720474,4.8720474 0 0 1 -4.87204,-4.87204 z"
       style="opacity:0.15100002;fill:#87efb0;fill-opacity:0.12426034;stroke:none;stroke-width:7;stroke-miterlimit:4;stroke-dasharray:none;stroke-opacity:1"
       inkscape:connector-curvature="0" />
    <path
       id="path8087"
       d="m 851.46022,427.30215 a 4.8720474,4.8720474 0 0 1 4.87205,-4.87205 4.8720474,4.8720474 0 0 1 4.87205,4.87205 4.8720474,4.8720474 0 0 1 -4.87205,4.87204 4.8720474,4.8720474 0 0 1 -4.87205,-4.87204 z"
       style="opacity:0.15100002;fill:#87efb0;fill-opacity:0.12426034;stroke:none;stroke-width:7;stroke-miterlimit:4;stroke-dasharray:none;stroke-opacity:1"
       inkscape:connector-curvature="0" />
    <path
       id="path8089"
       d="m 851.46025,519.42812 a 4.8720474,4.8720474 0 0 1 4.87204,-4.87205 4.8720474,4.8720474 0 0 1 4.87205,4.87205 4.8720474,4.8720474 0 0 1 -4.87205,4.87205 4.8720474,4.8720474 0 0 1 -4.87204,-4.87205 z"
       style="opacity:0.15100002;fill:#87efb0;fill-opacity:0.12426034;stroke:none;stroke-width:7;stroke-miterlimit:4;stroke-dasharray:none;stroke-opacity:1"
       inkscape:connector-curvature="0" />
    <path
       id="path8091"
       d="m 645.94844,519.42812 a 4.8720474,4.8720474 0 0 1 4.87204,-4.87205 4.8720474,4.8720474 0 0 1 4.87205,4.87205 4.8720474,4.8720474 0 0 1 -4.87205,4.87205 4.8720474,4.8720474 0 0 1 -4.87204,-4.87205 z"
       style="opacity:0.15100002;fill:#87efb0;fill-opacity:0.12426034;stroke:none;stroke-width:7;stroke-miterlimit:4;stroke-dasharray:none;stroke-opacity:1"
       inkscape:connector-curvature="0" />
    <path
       inkscape:connector-curvature="0"
       id="rect8530"
       d="m 824.4425,640.52277 0,7.08661 c 0,5.88898 -4.74094,10.62992 -10.62992,10.62992 l -191.33858,0 c -5.88897,0 -10.62992,-4.74094 -10.62992,-10.62992 l 0,-7.08661 c 0,-5.88898 4.74095,-10.62992 10.62992,-10.62992 l 191.33858,0 c 5.88898,0 10.62992,4.74094 10.62992,10.62992 z"
       style="opacity:0.15100002;fill:#87efb0;fill-opacity:0.12426034;stroke:none;stroke-width:7;stroke-miterlimit:4;stroke-dasharray:none;stroke-opacity:1" />
    <path
       inkscape:connector-curvature="0"
       id="rect8532"
       d="m 166.64718,623.43616 0,-7.0866 c 0,-5.889 4.7409,-10.6299 10.6299,-10.6299 l 120.47247,0 c 5.88897,0 10.62992,4.7409 10.62992,10.6299 l 0,7.0866 c 0,5.889 -4.74095,10.6299 -10.62992,10.6299 l -120.47247,0 c -5.889,0 -10.6299,-4.7409 -10.6299,-10.6299 z"
       style="opacity:0.15100002;fill:#87efb0;fill-opacity:0.12426034;stroke:none;stroke-width:7;stroke-miterlimit:4;stroke-dasharray:none;stroke-opacity:1" />
    <path
       inkscape:connector-curvature="0"
       id="rect8549"
       d="m 370.47146,749.21336 0,85.0394 c 0,5.8889 -4.74093,10.6299 -10.6299,10.6299 l -7.08665,0 c -5.88897,0 -10.6299,-4.741 -10.6299,-10.6299 l 0,-85.0394 c 0,-5.889 4.74093,-10.6299 10.6299,-10.6299 l 7.08665,0 c 5.88897,0 10.6299,4.7409 10.6299,10.6299 z"
       style="opacity:0.15100002;fill:#87efb0;fill-opacity:0.12426034;stroke:none;stroke-width:7;stroke-miterlimit:4;stroke-dasharray:none;stroke-opacity:1" />
    <path
       inkscape:connector-curvature="0"
       id="rect8561"
       d="m 200.39273,749.21336 0,85.0394 c 0,5.8889 -4.7409,10.6299 -10.6299,10.6299 l -7.0866,0 c -5.889,0 -10.6299,-4.741 -10.6299,-10.6299 l 0,-85.0394 c 0,-5.889 4.7409,-10.6299 10.6299,-10.6299 l 7.0866,0 c 5.889,0 10.6299,4.7409 10.6299,10.6299 z"
       style="opacity:0.15100002;fill:#87efb0;fill-opacity:0.12426034;stroke:none;stroke-width:7;stroke-miterlimit:4;stroke-dasharray:none;stroke-opacity:1" />
    <path
       inkscape:connector-curvature="0"
       id="circle6744"
       d="m 39.08815,1010.1764 a 5.6692915,5.6692915 0 0 1 -5.6693,-5.6693 5.6692915,5.6692915 0 0 1 5.6693,-5.66934 5.6692915,5.6692915 0 0 1 5.6693,5.66934 5.6692915,5.6692915 0 0 1 -5.6693,5.6693 z"
       style="opacity:0.15100002;fill:#87efb0;fill-opacity:0.12426034;stroke:none;stroke-width:7;stroke-miterlimit:4;stroke-dasharray:none;stroke-opacity:1" />
    <path
       inkscape:connector-curvature="0"
       id="circle6742"
       d="m 435.93858,1010.1764 a 5.6692915,5.6692915 0 0 1 -5.66929,-5.6693 5.6692915,5.6692915 0 0 1 5.66929,-5.66934 5.6692915,5.6692915 0 0 1 5.6693,5.66934 5.6692915,5.6692915 0 0 1 -5.6693,5.6693 z"
       style="opacity:0.15100002;fill:#87efb0;fill-opacity:0.12426034;stroke:none;stroke-width:7;stroke-miterlimit:4;stroke-dasharray:none;stroke-opacity:1" />
    <path
       inkscape:connector-curvature="0"
       id="circle8115"
       d="m 435.93858,861.35756 a 5.6692915,5.6692915 0 0 1 -5.66929,-5.6693 5.6692915,5.6692915 0 0 1 5.66929,-5.6693 5.6692915,5.6692915 0 0 1 5.6693,5.6693 5.6692915,5.6692915 0 0 1 -5.6693,5.6693 z"
       style="opacity:0.15100002;fill:#87efb0;fill-opacity:0.12426034;stroke:none;stroke-width:7;stroke-miterlimit:4;stroke-dasharray:none;stroke-opacity:1" />
    <path
       inkscape:connector-curvature="0"
       id="circle8117"
       d="m 39.08815,861.35756 a 5.6692915,5.6692915 0 0 1 -5.6693,-5.6693 5.6692915,5.6692915 0 0 1 5.6693,-5.6693 5.6692915,5.6692915 0 0 1 5.6693,5.6693 5.6692915,5.6692915 0 0 1 -5.6693,5.6693 z"
       style="opacity:0.15100002;fill:#87efb0;fill-opacity:0.12426034;stroke:none;stroke-width:7;stroke-miterlimit:4;stroke-dasharray:none;stroke-opacity:1" />
    <path
       inkscape:connector-curvature="0"
       id="circle8119"
       d="m 39.08815,687.73536 a 5.6692915,5.6692915 0 0 1 -5.6693,-5.6693 5.6692915,5.6692915 0 0 1 5.6693,-5.6693 5.6692915,5.6692915 0 0 1 5.6693,5.6693 5.6692915,5.6692915 0 0 1 -5.6693,5.6693 z"
       style="opacity:0.15100002;fill:#87efb0;fill-opacity:0.12426034;stroke:none;stroke-width:7;stroke-miterlimit:4;stroke-dasharray:none;stroke-opacity:1" />
    <path
       inkscape:connector-curvature="0"
       id="circle8121"
       d="m 39.08815,514.11326 a 5.6692915,5.6692915 0 0 1 -5.6693,-5.6693 5.6692915,5.6692915 0 0 1 5.6693,-5.6693 5.6692915,5.6692915 0 0 1 5.6693,5.6693 5.6692915,5.6692915 0 0 1 -5.6693,5.6693 z"
       style="opacity:0.15100002;fill:#87efb0;fill-opacity:0.12426034;stroke:none;stroke-width:7;stroke-miterlimit:4;stroke-dasharray:none;stroke-opacity:1" />
    <path
       inkscape:connector-curvature="0"
       id="circle8127"
       d="m 435.93858,514.11326 a 5.6692915,5.6692915 0 0 1 -5.66929,-5.6693 5.6692915,5.6692915 0 0 1 5.66929,-5.6693 5.6692915,5.6692915 0 0 1 5.6693,5.6693 5.6692915,5.6692915 0 0 1 -5.6693,5.6693 z"
       style="opacity:0.15100002;fill:#87efb0;fill-opacity:0.12426034;stroke:none;stroke-width:7;stroke-miterlimit:4;stroke-dasharray:none;stroke-opacity:1" />
    <path
       inkscape:connector-curvature="0"
       id="circle8129"
       d="m 435.93858,687.73536 a 5.6692915,5.6692915 0 0 1 -5.66929,-5.6693 5.6692915,5.6692915 0 0 1 5.66929,-5.6693 5.6692915,5.6692915 0 0 1 5.6693,5.6693 5.6692915,5.6692915 0 0 1 -5.6693,5.6693 z"
       style="opacity:0.15100002;fill:#87efb0;fill-opacity:0.12426034;stroke:none;stroke-width:7;stroke-miterlimit:4;stroke-dasharray:none;stroke-opacity:1" />
    <path
       d="m 329.6392,998.83776 c 1.50354,0 2.94561,0.5976 4.00878,1.66054"
       style="fill:none;stroke:#000000;stroke-width:0.31889793;stroke-linecap:round;stroke-linejoin:round"
       id="path8189"
       inkscape:connector-curvature="0" />
    <path
       d="m 333.648,1000.4983 c 1.06317,1.0632 1.6605,2.5052 1.6605,4.0088"
       style="fill:none;stroke:#000000;stroke-width:0.31889793;stroke-linecap:round;stroke-linejoin:round"
       id="path8191"
       inkscape:connector-curvature="0" />
    <path
       d="m 335.30849,1004.5071 c 0,1.5036 -0.5976,2.9456 -1.6605,4.0088"
       style="fill:none;stroke:#000000;stroke-width:0.31889793;stroke-linecap:round;stroke-linejoin:round"
       id="path8193"
       inkscape:connector-curvature="0" />
    <path
       d="m 333.648,1008.5159 c -1.06317,1.0632 -2.50524,1.6605 -4.00878,1.6605"
       style="fill:none;stroke:#000000;stroke-width:0.31889793;stroke-linecap:round;stroke-linejoin:round"
       id="path8195"
       inkscape:connector-curvature="0" />
    <path
       d="m 329.6392,1010.1764 c -1.50363,0 -2.94561,-0.5976 -4.00878,-1.6605"
       style="fill:none;stroke:#000000;stroke-width:0.31889793;stroke-linecap:round;stroke-linejoin:round"
       id="path8197"
       inkscape:connector-curvature="0" />
    <path
       d="m 325.63041,1008.5159 c -1.06317,-1.0632 -1.6605,-2.5052 -1.6605,-4.0088"
       style="fill:none;stroke:#000000;stroke-width:0.31889793;stroke-linecap:round;stroke-linejoin:round"
       id="path8199"
       inkscape:connector-curvature="0" />
    <path
       d="m 323.96992,1004.5071 c 0,-1.5036 0.5976,-2.9456 1.6605,-4.0088"
       style="fill:none;stroke:#000000;stroke-width:0.31889793;stroke-linecap:round;stroke-linejoin:round"
       id="path8201"
       inkscape:connector-curvature="0" />
    <path
       d="m 145.38755,998.83776 c 1.5036,0 2.9456,0.5976 4.0088,1.66054"
       style="fill:none;stroke:#000000;stroke-width:0.31889793;stroke-linecap:round;stroke-linejoin:round"
       id="path8203"
       inkscape:connector-curvature="0" />
    <path
       d="m 149.39635,1000.4983 c 1.0631,1.0632 1.6605,2.5052 1.6605,4.0088"
       style="fill:none;stroke:#000000;stroke-width:0.31889793;stroke-linecap:round;stroke-linejoin:round"
       id="path8205"
       inkscape:connector-curvature="0" />
    <path
       d="m 151.05685,1004.5071 c 0,1.5035 -0.5976,2.9456 -1.6605,4.0088"
       style="fill:none;stroke:#000000;stroke-width:0.31889793;stroke-linecap:round;stroke-linejoin:round"
       id="path8207"
       inkscape:connector-curvature="0" />
    <path
       d="m 149.39635,1008.5159 c -1.0632,1.0632 -2.5052,1.6605 -4.0088,1.6605"
       style="fill:none;stroke:#000000;stroke-width:0.31889793;stroke-linecap:round;stroke-linejoin:round"
       id="path8209"
       inkscape:connector-curvature="0" />
    <path
       d="m 145.38755,1010.1764 c -1.5037,0 -2.9456,-0.5976 -4.0088,-1.6605"
       style="fill:none;stroke:#000000;stroke-width:0.31889793;stroke-linecap:round;stroke-linejoin:round"
       id="path8211"
       inkscape:connector-curvature="0" />
    <path
       d="m 141.37875,1008.5159 c -1.0632,-1.0632 -1.6605,-2.5052 -1.6605,-4.0088"
       style="fill:none;stroke:#000000;stroke-width:0.31889793;stroke-linecap:round;stroke-linejoin:round"
       id="path8213"
       inkscape:connector-curvature="0" />
    <path
       d="m 139.71825,1004.5071 c 0,-1.5036 0.5976,-2.9456 1.6605,-4.0088"
       style="fill:none;stroke:#000000;stroke-width:0.31889793;stroke-linecap:round;stroke-linejoin:round"
       id="path8215"
       inkscape:connector-curvature="0" />
    <path
       d="m 325.63041,1000.4982 c 1.06317,-1.06317 2.50524,-1.66047 4.00878,-1.66047"
       style="fill:none;stroke:#000000;stroke-width:0.31889793;stroke-linecap:round;stroke-linejoin:round"
       id="path8221"
       inkscape:connector-curvature="0" />
    <path
       d="m 141.37874,1000.4982 c 1.0632,-1.06317 2.5052,-1.66047 4.0088,-1.66047"
       style="fill:none;stroke:#000000;stroke-width:0.31889793;stroke-linecap:round;stroke-linejoin:round"
       id="path8223"
       inkscape:connector-curvature="0" />
    <path
       d="M 329.6392,998.83776"
       style="fill:none;stroke:#000000;stroke-width:0.31889793;stroke-linecap:round;stroke-linejoin:round"
       id="path8225"
       inkscape:connector-curvature="0" />
    <path
       d="M 145.38755,998.83776"
       style="fill:none;stroke:#000000;stroke-width:0.31889793;stroke-linecap:round;stroke-linejoin:round"
       id="path8227"
       inkscape:connector-curvature="0" />
    <path
       inkscape:connector-curvature="0"
       id="path6720"
       d="m 435.93858,365.29436 a 5.6692915,5.6692915 0 0 1 -5.66929,-5.6692 5.6692915,5.6692915 0 0 1 5.66929,-5.6693 5.6692915,5.6692915 0 0 1 5.6693,5.6693 5.6692915,5.6692915 0 0 1 -5.6693,5.6692 z"
       style="opacity:0.15100002;fill:#87efb0;fill-opacity:0.12426034;stroke:none;stroke-width:7;stroke-miterlimit:4;stroke-dasharray:none;stroke-opacity:1" />
    <path
       inkscape:connector-curvature="0"
       id="circle6740"
       d="m 39.08815,365.29436 a 5.6692915,5.6692915 0 0 1 -5.6693,-5.6692 5.6692915,5.6692915 0 0 1 5.6693,-5.6693 5.6692915,5.6692915 0 0 1 5.6693,5.6693 5.6692915,5.6692915 0 0 1 -5.6693,5.6692 z"
       style="opacity:0.15100002;fill:#87efb0;fill-opacity:0.12426034;stroke:none;stroke-width:7;stroke-miterlimit:4;stroke-dasharray:none;stroke-opacity:1" />
    <path
       d="m 329.63921,353.95586 c 1.50354,0 2.94561,0.5976 4.00878,1.6605"
       style="fill:none;stroke:#000000;stroke-width:0.31889793;stroke-linecap:round;stroke-linejoin:round"
       id="path8235"
       inkscape:connector-curvature="0" />
    <path
       d="m 333.64801,355.61636 c 1.06317,1.0632 1.6605,2.5052 1.6605,4.0088"
       style="fill:none;stroke:#000000;stroke-width:0.31889793;stroke-linecap:round;stroke-linejoin:round"
       id="path8237"
       inkscape:connector-curvature="0" />
    <path
       d="m 335.3085,359.62516 c 0,1.5036 -0.5976,2.9456 -1.6605,4.0088"
       style="fill:none;stroke:#000000;stroke-width:0.31889793;stroke-linecap:round;stroke-linejoin:round"
       id="path8239"
       inkscape:connector-curvature="0" />
    <path
       d="m 333.64801,363.63396 c -1.06317,1.0632 -2.50524,1.6605 -4.00878,1.6605"
       style="fill:none;stroke:#000000;stroke-width:0.31889793;stroke-linecap:round;stroke-linejoin:round"
       id="path8241"
       inkscape:connector-curvature="0" />
    <path
       d="m 329.63921,365.29446 c -1.50363,0 -2.94561,-0.5976 -4.00878,-1.6605"
       style="fill:none;stroke:#000000;stroke-width:0.31889793;stroke-linecap:round;stroke-linejoin:round"
       id="path8243"
       inkscape:connector-curvature="0" />
    <path
       d="m 325.63042,363.63396 c -1.06317,-1.0632 -1.6605,-2.5052 -1.6605,-4.0088"
       style="fill:none;stroke:#000000;stroke-width:0.31889793;stroke-linecap:round;stroke-linejoin:round"
       id="path8245"
       inkscape:connector-curvature="0" />
    <path
       d="m 323.96993,359.62516 c 0,-1.5036 0.5976,-2.9456 1.6605,-4.0088"
       style="fill:none;stroke:#000000;stroke-width:0.31889793;stroke-linecap:round;stroke-linejoin:round"
       id="path8247"
       inkscape:connector-curvature="0" />
    <path
       d="m 145.38755,353.95586 c 1.5036,0 2.9456,0.5976 4.0088,1.6605"
       style="fill:none;stroke:#000000;stroke-width:0.31889793;stroke-linecap:round;stroke-linejoin:round"
       id="path8249"
       inkscape:connector-curvature="0" />
    <path
       d="m 149.39635,355.61636 c 1.0631,1.0632 1.6605,2.5052 1.6605,4.0088"
       style="fill:none;stroke:#000000;stroke-width:0.31889793;stroke-linecap:round;stroke-linejoin:round"
       id="path8251"
       inkscape:connector-curvature="0" />
    <path
       d="m 151.05685,359.62516 c 0,1.5035 -0.5976,2.9456 -1.6605,4.0088"
       style="fill:none;stroke:#000000;stroke-width:0.31889793;stroke-linecap:round;stroke-linejoin:round"
       id="path8253"
       inkscape:connector-curvature="0" />
    <path
       d="m 149.39635,363.63396 c -1.0632,1.0632 -2.5052,1.6605 -4.0088,1.6605"
       style="fill:none;stroke:#000000;stroke-width:0.31889793;stroke-linecap:round;stroke-linejoin:round"
       id="path8255"
       inkscape:connector-curvature="0" />
    <path
       d="m 145.38755,365.29446 c -1.5037,0 -2.9456,-0.5976 -4.0088,-1.6605"
       style="fill:none;stroke:#000000;stroke-width:0.31889793;stroke-linecap:round;stroke-linejoin:round"
       id="path8257"
       inkscape:connector-curvature="0" />
    <path
       d="m 141.37875,363.63396 c -1.0632,-1.0632 -1.6605,-2.5052 -1.6605,-4.0088"
       style="fill:none;stroke:#000000;stroke-width:0.31889793;stroke-linecap:round;stroke-linejoin:round"
       id="path8259"
       inkscape:connector-curvature="0" />
    <path
       d="m 139.71825,359.62516 c 0,-1.5036 0.5976,-2.9456 1.6605,-4.0088"
       style="fill:none;stroke:#000000;stroke-width:0.31889793;stroke-linecap:round;stroke-linejoin:round"
       id="path8261"
       inkscape:connector-curvature="0" />
    <path
       d="m 325.63042,355.61636 c 1.06317,-1.0632 2.50524,-1.6605 4.00878,-1.6605"
       style="fill:none;stroke:#000000;stroke-width:0.31889793;stroke-linecap:round;stroke-linejoin:round"
       id="path8267"
       inkscape:connector-curvature="0" />
    <path
       d="m 141.37875,355.61636 c 1.0632,-1.0632 2.5052,-1.6605 4.0088,-1.6605"
       style="fill:none;stroke:#000000;stroke-width:0.31889793;stroke-linecap:round;stroke-linejoin:round"
       id="path8269"
       inkscape:connector-curvature="0" />
    <path
       d="M 329.63921,353.95586"
       style="fill:none;stroke:#000000;stroke-width:0.31889793;stroke-linecap:round;stroke-linejoin:round"
       id="path8271"
       inkscape:connector-curvature="0" />
    <path
       d="M 145.38755,353.95586"
       style="fill:none;stroke:#000000;stroke-width:0.31889793;stroke-linecap:round;stroke-linejoin:round"
       id="path8273"
       inkscape:connector-curvature="0" />
    <path
       id="circle8692"
       d="m 435.93857,314.75539 a 5.6692915,5.6692915 0 0 1 -5.66929,-5.66929 5.6692915,5.6692915 0 0 1 5.66929,-5.66929 5.6692915,5.6692915 0 0 1 5.6693,5.66929 5.6692915,5.6692915 0 0 1 -5.6693,5.66929 z"
       style="opacity:0.15100002;fill:#87efb0;fill-opacity:0.12426034;stroke:none;stroke-width:7;stroke-miterlimit:4;stroke-dasharray:none;stroke-opacity:1"
       inkscape:connector-curvature="0" />
    <path
       id="circle8694"
       d="m 39.08814,314.75539 a 5.6692915,5.6692915 0 0 1 -5.6693,-5.66929 5.6692915,5.6692915 0 0 1 5.6693,-5.66929 5.6692915,5.6692915 0 0 1 5.6693,5.66929 5.6692915,5.6692915 0 0 1 -5.6693,5.66929 z"
       style="opacity:0.15100002;fill:#87efb0;fill-opacity:0.12426034;stroke:none;stroke-width:7;stroke-miterlimit:4;stroke-dasharray:none;stroke-opacity:1"
       inkscape:connector-curvature="0" />
    <path
       inkscape:connector-curvature="0"
       id="path8698"
       style="fill:none;stroke:#000000;stroke-width:0.31889793;stroke-linecap:round;stroke-linejoin:round"
       d="m 329.6392,303.41685 c 1.50354,0 2.94561,0.5976 4.00878,1.6605" />
    <path
       inkscape:connector-curvature="0"
       id="path8700"
       style="fill:none;stroke:#000000;stroke-width:0.31889793;stroke-linecap:round;stroke-linejoin:round"
       d="m 333.648,305.07735 c 1.06317,1.0632 1.6605,2.5052 1.6605,4.0088" />
    <path
       inkscape:connector-curvature="0"
       id="path8702"
       style="fill:none;stroke:#000000;stroke-width:0.31889793;stroke-linecap:round;stroke-linejoin:round"
       d="m 335.30849,309.08615 c 0,1.5036 -0.5976,2.9456 -1.6605,4.0088" />
    <path
       inkscape:connector-curvature="0"
       id="path8704"
       style="fill:none;stroke:#000000;stroke-width:0.31889793;stroke-linecap:round;stroke-linejoin:round"
       d="m 333.648,313.09495 c -1.06317,1.0632 -2.50524,1.6605 -4.00878,1.6605" />
    <path
       inkscape:connector-curvature="0"
       id="path8706"
       style="fill:none;stroke:#000000;stroke-width:0.31889793;stroke-linecap:round;stroke-linejoin:round"
       d="m 329.6392,314.75545 c -1.50363,0 -2.94561,-0.5976 -4.00878,-1.6605" />
    <path
       inkscape:connector-curvature="0"
       id="path8708"
       style="fill:none;stroke:#000000;stroke-width:0.31889793;stroke-linecap:round;stroke-linejoin:round"
       d="m 325.63041,313.09495 c -1.06317,-1.0632 -1.6605,-2.5052 -1.6605,-4.0088" />
    <path
       inkscape:connector-curvature="0"
       id="path8710"
       style="fill:none;stroke:#000000;stroke-width:0.31889793;stroke-linecap:round;stroke-linejoin:round"
       d="m 323.96992,309.08615 c 0,-1.5036 0.5976,-2.9456 1.6605,-4.0088" />
    <path
       inkscape:connector-curvature="0"
       id="path8712"
       style="fill:none;stroke:#000000;stroke-width:0.31889793;stroke-linecap:round;stroke-linejoin:round"
       d="m 145.38754,303.41685 c 1.5036,0 2.9456,0.5976 4.0088,1.6605" />
    <path
       inkscape:connector-curvature="0"
       id="path8714"
       style="fill:none;stroke:#000000;stroke-width:0.31889793;stroke-linecap:round;stroke-linejoin:round"
       d="m 149.39634,305.07735 c 1.0631,1.0632 1.6605,2.5052 1.6605,4.0088" />
    <path
       inkscape:connector-curvature="0"
       id="path8716"
       style="fill:none;stroke:#000000;stroke-width:0.31889793;stroke-linecap:round;stroke-linejoin:round"
       d="m 151.05684,309.08615 c 0,1.5035 -0.5976,2.9456 -1.6605,4.0088" />
    <path
       inkscape:connector-curvature="0"
       id="path8718"
       style="fill:none;stroke:#000000;stroke-width:0.31889793;stroke-linecap:round;stroke-linejoin:round"
       d="m 149.39634,313.09495 c -1.0632,1.0632 -2.5052,1.6605 -4.0088,1.6605" />
    <path
       inkscape:connector-curvature="0"
       id="path8720"
       style="fill:none;stroke:#000000;stroke-width:0.31889793;stroke-linecap:round;stroke-linejoin:round"
       d="m 145.38754,314.75545 c -1.5037,0 -2.9456,-0.5976 -4.0088,-1.6605" />
    <path
       inkscape:connector-curvature="0"
       id="path8722"
       style="fill:none;stroke:#000000;stroke-width:0.31889793;stroke-linecap:round;stroke-linejoin:round"
       d="m 141.37874,313.09495 c -1.0632,-1.0632 -1.6605,-2.5052 -1.6605,-4.0088" />
    <path
       inkscape:connector-curvature="0"
       id="path8724"
       style="fill:none;stroke:#000000;stroke-width:0.31889793;stroke-linecap:round;stroke-linejoin:round"
       d="m 139.71824,309.08615 c 0,-1.5036 0.5976,-2.9456 1.6605,-4.0088" />
    <path
       inkscape:connector-curvature="0"
       id="path8730"
       style="fill:none;stroke:#000000;stroke-width:0.31889793;stroke-linecap:round;stroke-linejoin:round"
       d="m 325.63041,305.07736 c 1.06317,-1.0632 2.50524,-1.6605 4.00878,-1.6605" />
    <path
       inkscape:connector-curvature="0"
       id="path8732"
       style="fill:none;stroke:#000000;stroke-width:0.31889793;stroke-linecap:round;stroke-linejoin:round"
       d="m 141.37874,305.07736 c 1.0632,-1.0632 2.5052,-1.6605 4.0088,-1.6605" />
    <path
       inkscape:connector-curvature="0"
       id="path8734"
       style="fill:none;stroke:#000000;stroke-width:0.31889793;stroke-linecap:round;stroke-linejoin:round"
       d="M 329.6392,303.41685" />
    <path
       inkscape:connector-curvature="0"
       id="path8736"
       style="fill:none;stroke:#000000;stroke-width:0.31889793;stroke-linecap:round;stroke-linejoin:round"
       d="M 145.38754,303.41685" />
    <path
       inkscape:connector-curvature="0"
       id="circle8422"
       d="m 519.71809,1010.1763 a 5.6692915,5.6692915 0 0 1 -5.66929,-5.6693 5.6692915,5.6692915 0 0 1 5.66929,-5.66928 5.6692915,5.6692915 0 0 1 5.66929,5.66928 5.6692915,5.6692915 0 0 1 -5.66929,5.6693 z"
       style="opacity:0.15100002;fill:#87efb0;fill-opacity:0.12426034;stroke:none;stroke-width:7;stroke-miterlimit:4;stroke-dasharray:none;stroke-opacity:1" />
    <path
       inkscape:connector-curvature="0"
       id="circle8424"
       d="m 916.56849,365.2944 a 5.6692915,5.6692915 0 0 1 -5.66929,-5.66929 5.6692915,5.6692915 0 0 1 5.66929,-5.66929 5.6692915,5.6692915 0 0 1 5.66929,5.66929 5.6692915,5.6692915 0 0 1 -5.66929,5.66929 z"
       style="opacity:0.15100002;fill:#87efb0;fill-opacity:0.12426034;stroke:none;stroke-width:7;stroke-miterlimit:4;stroke-dasharray:none;stroke-opacity:1" />
    <path
       inkscape:connector-curvature="0"
       id="circle8426"
       d="m 519.71809,365.2944 a 5.6692915,5.6692915 0 0 1 -5.66929,-5.66929 5.6692915,5.6692915 0 0 1 5.66929,-5.66929 5.6692915,5.6692915 0 0 1 5.66929,5.66929 5.6692915,5.6692915 0 0 1 -5.66929,5.66929 z"
       style="opacity:0.15100002;fill:#87efb0;fill-opacity:0.12426034;stroke:none;stroke-width:7;stroke-miterlimit:4;stroke-dasharray:none;stroke-opacity:1" />
    <path
       inkscape:connector-curvature="0"
       id="circle8428"
       d="m 916.56849,1010.1763 a 5.6692915,5.6692915 0 0 1 -5.66929,-5.6693 5.6692915,5.6692915 0 0 1 5.66929,-5.66928 5.6692915,5.6692915 0 0 1 5.66929,5.66928 5.6692915,5.6692915 0 0 1 -5.66929,5.6693 z"
       style="opacity:0.15100002;fill:#87efb0;fill-opacity:0.12426034;stroke:none;stroke-width:7;stroke-miterlimit:4;stroke-dasharray:none;stroke-opacity:1" />
    <path
       inkscape:connector-curvature="0"
       id="circle8430"
       d="m 916.56849,861.35745 a 5.6692915,5.6692915 0 0 1 -5.66929,-5.66929 5.6692915,5.6692915 0 0 1 5.66929,-5.66929 5.6692915,5.6692915 0 0 1 5.66929,5.66929 5.6692915,5.6692915 0 0 1 -5.66929,5.66929 z"
       style="opacity:0.15100002;fill:#87efb0;fill-opacity:0.12426034;stroke:none;stroke-width:7;stroke-miterlimit:4;stroke-dasharray:none;stroke-opacity:1" />
    <path
       inkscape:connector-curvature="0"
       id="circle8432"
       d="m 519.71809,861.35745 a 5.6692915,5.6692915 0 0 1 -5.66929,-5.66929 5.6692915,5.6692915 0 0 1 5.66929,-5.66929 5.6692915,5.6692915 0 0 1 5.66929,5.66929 5.6692915,5.6692915 0 0 1 -5.66929,5.66929 z"
       style="opacity:0.15100002;fill:#87efb0;fill-opacity:0.12426034;stroke:none;stroke-width:7;stroke-miterlimit:4;stroke-dasharray:none;stroke-opacity:1" />
    <path
       inkscape:connector-curvature="0"
       id="circle8434"
       d="m 519.71809,687.73532 a 5.6692915,5.6692915 0 0 1 -5.66929,-5.66929 5.6692915,5.6692915 0 0 1 5.66929,-5.66929 5.6692915,5.6692915 0 0 1 5.66929,5.66929 5.6692915,5.6692915 0 0 1 -5.66929,5.66929 z"
       style="opacity:0.15100002;fill:#87efb0;fill-opacity:0.12426034;stroke:none;stroke-width:7;stroke-miterlimit:4;stroke-dasharray:none;stroke-opacity:1" />
    <path
       inkscape:connector-curvature="0"
       id="circle8436"
       d="m 519.71809,514.11322 a 5.6692915,5.6692915 0 0 1 -5.66929,-5.66929 5.6692915,5.6692915 0 0 1 5.66929,-5.66929 5.6692915,5.6692915 0 0 1 5.66929,5.66929 5.6692915,5.6692915 0 0 1 -5.66929,5.66929 z"
       style="opacity:0.15100002;fill:#87efb0;fill-opacity:0.12426034;stroke:none;stroke-width:7;stroke-miterlimit:4;stroke-dasharray:none;stroke-opacity:1" />
    <path
       inkscape:connector-curvature="0"
       id="circle8438"
       d="m 916.56849,514.11322 a 5.6692915,5.6692915 0 0 1 -5.66929,-5.66929 5.6692915,5.6692915 0 0 1 5.66929,-5.66929 5.6692915,5.6692915 0 0 1 5.66929,5.66929 5.6692915,5.6692915 0 0 1 -5.66929,5.66929 z"
       style="opacity:0.15100002;fill:#87efb0;fill-opacity:0.12426034;stroke:none;stroke-width:7;stroke-miterlimit:4;stroke-dasharray:none;stroke-opacity:1" />
    <path
       inkscape:connector-curvature="0"
       id="circle8440"
       d="m 916.56849,687.73532 a 5.6692915,5.6692915 0 0 1 -5.66929,-5.66929 5.6692915,5.6692915 0 0 1 5.66929,-5.66929 5.6692915,5.6692915 0 0 1 5.66929,5.66929 5.6692915,5.6692915 0 0 1 -5.66929,5.66929 z"
       style="opacity:0.15100002;fill:#87efb0;fill-opacity:0.12426034;stroke:none;stroke-width:7;stroke-miterlimit:4;stroke-dasharray:none;stroke-opacity:1" />
    <path
       inkscape:connector-curvature="0"
       id="path8446"
       style="fill:none;stroke:#000000;stroke-width:0.31889793;stroke-linecap:round;stroke-linejoin:round"
       d="m 810.26911,998.83774 c 1.50354,0 2.94561,0.5976 4.00878,1.66046" />
    <path
       inkscape:connector-curvature="0"
       id="path8448"
       style="fill:none;stroke:#000000;stroke-width:0.31889793;stroke-linecap:round;stroke-linejoin:round"
       d="m 814.27791,1000.4982 c 1.06317,1.0632 1.6605,2.5052 1.6605,4.0088" />
    <path
       inkscape:connector-curvature="0"
       id="path8450"
       style="fill:none;stroke:#000000;stroke-width:0.31889793;stroke-linecap:round;stroke-linejoin:round"
       d="m 815.9384,1004.507 c 0,1.5036 -0.5976,2.9456 -1.6605,4.0088" />
    <path
       inkscape:connector-curvature="0"
       id="path8452"
       style="fill:none;stroke:#000000;stroke-width:0.31889793;stroke-linecap:round;stroke-linejoin:round"
       d="m 814.27791,1008.5158 c -1.06317,1.0632 -2.50524,1.6605 -4.00878,1.6605" />
    <path
       inkscape:connector-curvature="0"
       id="path8454"
       style="fill:none;stroke:#000000;stroke-width:0.31889793;stroke-linecap:round;stroke-linejoin:round"
       d="m 810.26911,1010.1763 c -1.50363,0 -2.94561,-0.5976 -4.00878,-1.6605" />
    <path
       inkscape:connector-curvature="0"
       id="path8456"
       style="fill:none;stroke:#000000;stroke-width:0.31889793;stroke-linecap:round;stroke-linejoin:round"
       d="m 806.26032,1008.5158 c -1.06317,-1.0632 -1.6605,-2.5052 -1.6605,-4.0088" />
    <path
       inkscape:connector-curvature="0"
       id="path8458"
       style="fill:none;stroke:#000000;stroke-width:0.31889793;stroke-linecap:round;stroke-linejoin:round"
       d="m 804.59983,1004.507 c 0,-1.5036 0.5976,-2.9456 1.6605,-4.0088" />
    <path
       inkscape:connector-curvature="0"
       id="path8460"
       style="fill:none;stroke:#000000;stroke-width:0.31889793;stroke-linecap:round;stroke-linejoin:round"
       d="m 626.01745,998.83774 c 1.5036,0 2.9456,0.5976 4.0088,1.66046" />
    <path
       inkscape:connector-curvature="0"
       id="path8462"
       style="fill:none;stroke:#000000;stroke-width:0.31889793;stroke-linecap:round;stroke-linejoin:round"
       d="m 630.02625,1000.4982 c 1.0631,1.0632 1.6605,2.5052 1.6605,4.0088" />
    <path
       inkscape:connector-curvature="0"
       id="path8464"
       style="fill:none;stroke:#000000;stroke-width:0.31889793;stroke-linecap:round;stroke-linejoin:round"
       d="m 631.68675,1004.507 c 0,1.5035 -0.5976,2.9456 -1.6605,4.0088" />
    <path
       inkscape:connector-curvature="0"
       id="path8466"
       style="fill:none;stroke:#000000;stroke-width:0.31889793;stroke-linecap:round;stroke-linejoin:round"
       d="m 630.02625,1008.5158 c -1.0632,1.0632 -2.5052,1.6605 -4.0088,1.6605" />
    <path
       inkscape:connector-curvature="0"
       id="path8468"
       style="fill:none;stroke:#000000;stroke-width:0.31889793;stroke-linecap:round;stroke-linejoin:round"
       d="m 626.01745,1010.1763 c -1.5037,0 -2.9456,-0.5976 -4.0088,-1.6605" />
    <path
       inkscape:connector-curvature="0"
       id="path8470"
       style="fill:none;stroke:#000000;stroke-width:0.31889793;stroke-linecap:round;stroke-linejoin:round"
       d="m 622.00865,1008.5158 c -1.0632,-1.0632 -1.6605,-2.5052 -1.6605,-4.0088" />
    <path
       inkscape:connector-curvature="0"
       id="path8472"
       style="fill:none;stroke:#000000;stroke-width:0.31889793;stroke-linecap:round;stroke-linejoin:round"
       d="m 620.34815,1004.507 c 0,-1.5036 0.5976,-2.9456 1.6605,-4.0088" />
    <path
       inkscape:connector-curvature="0"
       id="path8478"
       style="fill:none;stroke:#000000;stroke-width:0.31889793;stroke-linecap:round;stroke-linejoin:round"
       d="m 806.26032,1000.4982 c 1.06317,-1.06316 2.50524,-1.66046 4.00878,-1.66046" />
    <path
       inkscape:connector-curvature="0"
       id="path8480"
       style="fill:none;stroke:#000000;stroke-width:0.31889793;stroke-linecap:round;stroke-linejoin:round"
       d="m 622.00865,1000.4982 c 1.0632,-1.06316 2.5052,-1.66046 4.0088,-1.66046" />
    <path
       inkscape:connector-curvature="0"
       id="path8482"
       style="fill:none;stroke:#000000;stroke-width:0.31889793;stroke-linecap:round;stroke-linejoin:round"
       d="M 810.26911,998.83774" />
    <path
       inkscape:connector-curvature="0"
       id="path8484"
       style="fill:none;stroke:#000000;stroke-width:0.31889793;stroke-linecap:round;stroke-linejoin:round"
       d="M 626.01745,998.83774" />
    <path
       inkscape:connector-curvature="0"
       id="path8488"
       style="fill:none;stroke:#000000;stroke-width:0.31889793;stroke-linecap:round;stroke-linejoin:round"
       d="m 810.26912,353.95584 c 1.50354,0 2.94561,0.5976 4.00878,1.6605" />
    <path
       inkscape:connector-curvature="0"
       id="path8490"
       style="fill:none;stroke:#000000;stroke-width:0.31889793;stroke-linecap:round;stroke-linejoin:round"
       d="m 814.27792,355.61634 c 1.06317,1.0632 1.6605,2.5052 1.6605,4.0088" />
    <path
       inkscape:connector-curvature="0"
       id="path8492"
       style="fill:none;stroke:#000000;stroke-width:0.31889793;stroke-linecap:round;stroke-linejoin:round"
       d="m 815.93841,359.62514 c 0,1.5036 -0.5976,2.9456 -1.6605,4.0088" />
    <path
       inkscape:connector-curvature="0"
       id="path8494"
       style="fill:none;stroke:#000000;stroke-width:0.31889793;stroke-linecap:round;stroke-linejoin:round"
       d="m 814.27792,363.63394 c -1.06317,1.0632 -2.50524,1.6605 -4.00878,1.6605" />
    <path
       inkscape:connector-curvature="0"
       id="path8496"
       style="fill:none;stroke:#000000;stroke-width:0.31889793;stroke-linecap:round;stroke-linejoin:round"
       d="m 810.26912,365.29444 c -1.50363,0 -2.94561,-0.5976 -4.00878,-1.6605" />
    <path
       inkscape:connector-curvature="0"
       id="path8498"
       style="fill:none;stroke:#000000;stroke-width:0.31889793;stroke-linecap:round;stroke-linejoin:round"
       d="m 806.26033,363.63394 c -1.06317,-1.0632 -1.6605,-2.5052 -1.6605,-4.0088" />
    <path
       inkscape:connector-curvature="0"
       id="path8500"
       style="fill:none;stroke:#000000;stroke-width:0.31889793;stroke-linecap:round;stroke-linejoin:round"
       d="m 804.59984,359.62514 c 0,-1.5036 0.5976,-2.9456 1.6605,-4.0088" />
    <path
       inkscape:connector-curvature="0"
       id="path8502"
       style="fill:none;stroke:#000000;stroke-width:0.31889793;stroke-linecap:round;stroke-linejoin:round"
       d="m 626.01746,353.95584 c 1.5036,0 2.9456,0.5976 4.0088,1.6605" />
    <path
       inkscape:connector-curvature="0"
       id="path8504"
       style="fill:none;stroke:#000000;stroke-width:0.31889793;stroke-linecap:round;stroke-linejoin:round"
       d="m 630.02626,355.61634 c 1.0631,1.0632 1.6605,2.5052 1.6605,4.0088" />
    <path
       inkscape:connector-curvature="0"
       id="path8506"
       style="fill:none;stroke:#000000;stroke-width:0.31889793;stroke-linecap:round;stroke-linejoin:round"
       d="m 631.68676,359.62514 c 0,1.5035 -0.5976,2.9456 -1.6605,4.0088" />
    <path
       inkscape:connector-curvature="0"
       id="path8508"
       style="fill:none;stroke:#000000;stroke-width:0.31889793;stroke-linecap:round;stroke-linejoin:round"
       d="m 630.02626,363.63394 c -1.0632,1.0632 -2.5052,1.6605 -4.0088,1.6605" />
    <path
       inkscape:connector-curvature="0"
       id="path8510"
       style="fill:none;stroke:#000000;stroke-width:0.31889793;stroke-linecap:round;stroke-linejoin:round"
       d="m 626.01746,365.29444 c -1.5037,0 -2.9456,-0.5976 -4.0088,-1.6605" />
    <path
       inkscape:connector-curvature="0"
       id="path8512"
       style="fill:none;stroke:#000000;stroke-width:0.31889793;stroke-linecap:round;stroke-linejoin:round"
       d="m 622.00866,363.63394 c -1.0632,-1.0632 -1.6605,-2.5052 -1.6605,-4.0088" />
    <path
       inkscape:connector-curvature="0"
       id="path8514"
       style="fill:none;stroke:#000000;stroke-width:0.31889793;stroke-linecap:round;stroke-linejoin:round"
       d="m 620.34816,359.62514 c 0,-1.5036 0.5976,-2.9456 1.6605,-4.0088" />
    <path
       inkscape:connector-curvature="0"
       id="path8520"
       style="fill:none;stroke:#000000;stroke-width:0.31889793;stroke-linecap:round;stroke-linejoin:round"
       d="m 806.26033,355.61634 c 1.06317,-1.0632 2.50524,-1.6605 4.00878,-1.6605" />
    <path
       inkscape:connector-curvature="0"
       id="path8522"
       style="fill:none;stroke:#000000;stroke-width:0.31889793;stroke-linecap:round;stroke-linejoin:round"
       d="m 622.00866,355.61634 c 1.0632,-1.0632 2.5052,-1.6605 4.0088,-1.6605" />
    <path
       inkscape:connector-curvature="0"
       id="path8524"
       style="fill:none;stroke:#000000;stroke-width:0.31889793;stroke-linecap:round;stroke-linejoin:round"
       d="M 810.26912,353.95584" />
    <path
       inkscape:connector-curvature="0"
       id="path8526"
       style="fill:none;stroke:#000000;stroke-width:0.31889793;stroke-linecap:round;stroke-linejoin:round"
       d="M 626.01746,353.95584" />
    <path
       style="opacity:0.15100002;fill:#87efb0;fill-opacity:0.12426034;stroke:none;stroke-width:7;stroke-miterlimit:4;stroke-dasharray:none;stroke-opacity:1"
       d="m 966.17479,359.62513 0,644.88187 c 0,7.852 -6.32126,14.1732 -14.17323,14.1732 l -467.71654,0 c -7.85196,0 -14.17322,-6.3212 -14.17322,-14.1732 l 0,-644.88187 c 0,-7.85197 6.32126,-14.17323 14.17322,-14.17323 l 467.71654,0 c 7.85197,0 14.17323,6.32126 14.17323,14.17323 z"
       id="rect8528"
       inkscape:connector-curvature="0" />
    <path
       style="opacity:0.15100002;fill:#87efb0;fill-opacity:0.12426034;stroke:none;stroke-width:7;stroke-miterlimit:4;stroke-dasharray:none;stroke-opacity:1"
       d="m 450.1118,160.14111 0,149.13756 c 0,7.85196 -6.32126,14.17322 -14.17323,14.17322 l -396.85038,0 c -7.85197,0 -14.17323,-6.32126 -14.17323,-14.17322 l 0,-149.13756 c 0,-7.85196 6.32126,-14.17322 14.17323,-14.17322 l 396.85038,0 c 7.85197,0 14.17323,6.32126 14.17323,14.17322 z"
       id="rect8573"
       inkscape:connector-curvature="0" />
    <path
       style="fill:none;fill-rule:evenodd;stroke:#000000;stroke-width:1px;stroke-linecap:butt;stroke-linejoin:miter;stroke-opacity:1"
       d="m 450.11179,271.45392 c -425.19683,0 -425.19683,0 -425.19683,0"
       id="path8575"
       inkscape:connector-curvature="0" />
    <path
       inkscape:connector-curvature="0"
       id="path4308"
       d="m 58.930679,964.11329 a 5.6692915,5.6692915 0 0 1 -5.66929,-5.6692 5.6692915,5.6692915 0 0 1 5.66929,-5.6693 5.6692915,5.6692915 0 0 1 5.66929,5.6693 5.6692915,5.6692915 0 0 1 -5.66929,5.6692 z"
       style="opacity:0.15100002;fill:#87efb0;fill-opacity:0.12426034;stroke:none;stroke-width:7;stroke-miterlimit:4;stroke-dasharray:none;stroke-opacity:1" />
    <path
       inkscape:connector-curvature="0"
       id="path4310"
       d="m 108.00549,964.11329 a 5.6692915,5.6692915 0 0 1 -5.66929,-5.6692 5.6692915,5.6692915 0 0 1 5.66929,-5.6693 5.6692915,5.6692915 0 0 1 5.66929,5.6693 5.6692915,5.6692915 0 0 1 -5.66929,5.6692 z"
       style="opacity:0.15100002;fill:#87efb0;fill-opacity:0.12426034;stroke:none;stroke-width:7;stroke-miterlimit:4;stroke-dasharray:none;stroke-opacity:1" />
    <path
       inkscape:connector-curvature="0"
       id="path4312"
       d="m 108.00549,907.42039 a 5.6692915,5.6692915 0 0 1 -5.66929,-5.6692 5.6692915,5.6692915 0 0 1 5.66929,-5.6693 5.6692915,5.6692915 0 0 1 5.66929,5.6693 5.6692915,5.6692915 0 0 1 -5.66929,5.6692 z"
       style="opacity:0.15100002;fill:#87efb0;fill-opacity:0.12426034;stroke:none;stroke-width:7;stroke-miterlimit:4;stroke-dasharray:none;stroke-opacity:1" />
    <path
       inkscape:connector-curvature="0"
       id="path4314"
       d="m 58.930679,907.42039 a 5.6692915,5.6692915 0 0 1 -5.66929,-5.6692 5.6692915,5.6692915 0 0 1 5.66929,-5.6693 5.6692915,5.6692915 0 0 1 5.66929,5.6693 5.6692915,5.6692915 0 0 1 -5.66929,5.6692 z"
       style="opacity:0.15100002;fill:#87efb0;fill-opacity:0.12426034;stroke:none;stroke-width:7;stroke-miterlimit:4;stroke-dasharray:none;stroke-opacity:1" />
    <path
       style="opacity:0.15100002;fill:#87efb0;fill-opacity:0.12426034;stroke:none;stroke-width:7;stroke-miterlimit:4;stroke-dasharray:none;stroke-opacity:1"
       d="m 367.02127,964.11329 a 5.6692915,5.6692915 0 0 1 -5.66929,-5.6692 5.6692915,5.6692915 0 0 1 5.66929,-5.6693 5.6692915,5.6692915 0 0 1 5.66929,5.6693 5.6692915,5.6692915 0 0 1 -5.66929,5.6692 z"
       id="path4316"
       inkscape:connector-curvature="0" />
    <path
       style="opacity:0.15100002;fill:#87efb0;fill-opacity:0.12426034;stroke:none;stroke-width:7;stroke-miterlimit:4;stroke-dasharray:none;stroke-opacity:1"
       d="m 416.09608,964.11329 a 5.6692915,5.6692915 0 0 1 -5.66929,-5.6692 5.6692915,5.6692915 0 0 1 5.66929,-5.6693 5.6692915,5.6692915 0 0 1 5.66929,5.6693 5.6692915,5.6692915 0 0 1 -5.66929,5.6692 z"
       id="path4318"
       inkscape:connector-curvature="0" />
    <path
       style="opacity:0.15100002;fill:#87efb0;fill-opacity:0.12426034;stroke:none;stroke-width:7;stroke-miterlimit:4;stroke-dasharray:none;stroke-opacity:1"
       d="m 416.09608,907.42039 a 5.6692915,5.6692915 0 0 1 -5.66929,-5.6692 5.6692915,5.6692915 0 0 1 5.66929,-5.6693 5.6692915,5.6692915 0 0 1 5.66929,5.6693 5.6692915,5.6692915 0 0 1 -5.66929,5.6692 z"
       id="path4320"
       inkscape:connector-curvature="0" />
    <path
       style="opacity:0.15100002;fill:#87efb0;fill-opacity:0.12426034;stroke:none;stroke-width:7;stroke-miterlimit:4;stroke-dasharray:none;stroke-opacity:1"
       d="m 367.02127,907.42039 a 5.6692915,5.6692915 0 0 1 -5.66929,-5.6692 5.6692915,5.6692915 0 0 1 5.66929,-5.6693 5.6692915,5.6692915 0 0 1 5.66929,5.6693 5.6692915,5.6692915 0 0 1 -5.66929,5.6692 z"
       id="path4322"
       inkscape:connector-curvature="0" />
    <path
       inkscape:connector-curvature="0"
       id="path4324"
       d="m 367.02127,468.05024 a 5.6692915,5.6692915 0 0 1 -5.66929,-5.6692 5.6692915,5.6692915 0 0 1 5.66929,-5.6693 5.6692915,5.6692915 0 0 1 5.66929,5.6693 5.6692915,5.6692915 0 0 1 -5.66929,5.6692 z"
       style="opacity:0.15100002;fill:#87efb0;fill-opacity:0.12426034;stroke:none;stroke-width:7;stroke-miterlimit:4;stroke-dasharray:none;stroke-opacity:1" />
    <path
       inkscape:connector-curvature="0"
       id="path4326"
       d="m 416.09608,468.05024 a 5.6692915,5.6692915 0 0 1 -5.66929,-5.6692 5.6692915,5.6692915 0 0 1 5.66929,-5.6693 5.6692915,5.6692915 0 0 1 5.66929,5.6693 5.6692915,5.6692915 0 0 1 -5.66929,5.6692 z"
       style="opacity:0.15100002;fill:#87efb0;fill-opacity:0.12426034;stroke:none;stroke-width:7;stroke-miterlimit:4;stroke-dasharray:none;stroke-opacity:1" />
    <path
       inkscape:connector-curvature="0"
       id="path4328"
       d="m 416.09608,411.35734 a 5.6692915,5.6692915 0 0 1 -5.66929,-5.6692 5.6692915,5.6692915 0 0 1 5.66929,-5.6693 5.6692915,5.6692915 0 0 1 5.66929,5.6693 5.6692915,5.6692915 0 0 1 -5.66929,5.6692 z"
       style="opacity:0.15100002;fill:#87efb0;fill-opacity:0.12426034;stroke:none;stroke-width:7;stroke-miterlimit:4;stroke-dasharray:none;stroke-opacity:1" />
    <path
       inkscape:connector-curvature="0"
       id="path4330"
       d="m 367.02127,411.35734 a 5.6692915,5.6692915 0 0 1 -5.66929,-5.6692 5.6692915,5.6692915 0 0 1 5.66929,-5.6693 5.6692915,5.6692915 0 0 1 5.66929,5.6693 5.6692915,5.6692915 0 0 1 -5.66929,5.6692 z"
       style="opacity:0.15100002;fill:#87efb0;fill-opacity:0.12426034;stroke:none;stroke-width:7;stroke-miterlimit:4;stroke-dasharray:none;stroke-opacity:1" />
    <path
       style="opacity:0.15100002;fill:#87efb0;fill-opacity:0.12426034;stroke:none;stroke-width:7;stroke-miterlimit:4;stroke-dasharray:none;stroke-opacity:1"
       d="m 58.930679,468.05024 a 5.6692915,5.6692915 0 0 1 -5.66929,-5.6692 5.6692915,5.6692915 0 0 1 5.66929,-5.6693 5.6692915,5.6692915 0 0 1 5.66929,5.6693 5.6692915,5.6692915 0 0 1 -5.66929,5.6692 z"
       id="path4332"
       inkscape:connector-curvature="0" />
    <path
       style="opacity:0.15100002;fill:#87efb0;fill-opacity:0.12426034;stroke:none;stroke-width:7;stroke-miterlimit:4;stroke-dasharray:none;stroke-opacity:1"
       d="m 108.00549,468.05024 a 5.6692915,5.6692915 0 0 1 -5.66929,-5.6692 5.6692915,5.6692915 0 0 1 5.66929,-5.6693 5.6692915,5.6692915 0 0 1 5.66929,5.6693 5.6692915,5.6692915 0 0 1 -5.66929,5.6692 z"
       id="path4334"
       inkscape:connector-curvature="0" />
    <path
       style="opacity:0.15100002;fill:#87efb0;fill-opacity:0.12426034;stroke:none;stroke-width:7;stroke-miterlimit:4;stroke-dasharray:none;stroke-opacity:1"
       d="m 108.00549,411.35734 a 5.6692915,5.6692915 0 0 1 -5.66929,-5.6692 5.6692915,5.6692915 0 0 1 5.66929,-5.6693 5.6692915,5.6692915 0 0 1 5.66929,5.6693 5.6692915,5.6692915 0 0 1 -5.66929,5.6692 z"
       id="path4336"
       inkscape:connector-curvature="0" />
    <path
       style="opacity:0.15100002;fill:#87efb0;fill-opacity:0.12426034;stroke:none;stroke-width:7;stroke-miterlimit:4;stroke-dasharray:none;stroke-opacity:1"
       d="m 58.930679,411.35734 a 5.6692915,5.6692915 0 0 1 -5.66929,-5.6692 5.6692915,5.6692915 0 0 1 5.66929,-5.6693 5.6692915,5.6692915 0 0 1 5.66929,5.6693 5.6692915,5.6692915 0 0 1 -5.66929,5.6692 z"
       id="path4338"
       inkscape:connector-curvature="0" />
    <g
       id="g4608"
       transform="matrix(3.9827517,0,0,3.9827517,1559.3931,-3409.2783)">
      <path
         style="fill:#231f20;fill-opacity:1;fill-rule:nonzero;stroke:none"
         d="m -222.6108,1084.3246 c -0.0212,1.1853 -0.0423,1.5875 -0.21166,1.9473 -0.3175,0.6985 -0.99484,1.0372 -2.26484,1.1218 -0.48683,0.042 -1.4605,0.063 -3.09033,0.063 -2.3495,0 -3.1115,-0.127 -3.76767,-0.5503 -0.80433,-0.508 -1.03716,-1.3758 -1.03716,-3.7888 0,-2.1378 0.23283,-2.921 1.10066,-3.4078 0.74084,-0.4233 1.50284,-0.5292 3.78884,-0.5292 3.048,0 3.70416,0.063 4.40266,0.4022 0.65617,0.3175 0.97367,1.0372 0.97367,2.2436 l 0,0.2752 -2.37067,0 c -0.0423,-0.889 -0.23283,-0.9736 -2.39183,-0.9736 -2.032,0 -2.39183,0.042 -2.68817,0.3174 -0.29633,0.2752 -0.35983,0.5927 -0.35983,1.9262 0,1.9473 0.1905,2.0955 2.56117,2.0955 1.8415,0 2.11666,-0.021 2.45533,-0.1482 0.35983,-0.1482 0.48683,-0.4233 0.48683,-0.9948 z"
         id="path4546"
         inkscape:connector-curvature="0" />
      <path
         style="fill:#231f20;fill-opacity:1;fill-rule:nonzero;stroke:none"
         d="m -218.20813,1081.4459 c -0.33867,0.254 -0.42333,0.6562 -0.42333,1.8204 0,1.2065 0.0847,1.6298 0.40216,1.9049 0.3175,0.254 0.71967,0.3175 2.6035,0.3175 2.13784,0 2.56117,-0.085 2.8575,-0.4656 0.23284,-0.2963 0.29634,-0.7197 0.29634,-1.7992 0,-2.0531 -0.0423,-2.0743 -3.09034,-2.0743 -1.82033,0 -2.32833,0.063 -2.64583,0.2963 m 6.07483,-2.1801 c 1.26972,0.2328 1.88356,0.889 2.05289,2.2013 0.0423,0.3175 0.0635,0.9737 0.0635,1.9685 0,1.9685 -0.21167,2.7728 -0.889,3.3443 -0.50772,0.4022 -1.18505,0.6138 -2.37039,0.6562 -0.4445,0.021 -1.524,0.042 -2.32833,0.042 -1.92617,0 -2.921,-0.042 -3.40783,-0.1482 -0.91017,-0.1482 -1.43934,-0.4868 -1.73567,-1.1007 -0.3175,-0.5926 -0.40217,-1.1853 -0.40217,-2.9633 0,-1.3758 0.0212,-1.7145 0.16934,-2.2648 0.23283,-0.8678 0.71966,-1.3335 1.62983,-1.6086 0.6985,-0.1905 1.43933,-0.2329 3.57717,-0.2329 2.3495,0 3.06916,0.021 3.64066,0.1059 z"
         id="path4548"
         inkscape:connector-curvature="0" />
      <path
         style="fill:#231f20;fill-opacity:1;fill-rule:nonzero;stroke:none"
         d="m -202.01591,1083.3509 c 1.18533,0 1.41817,-0.1481 1.41817,-0.9525 0,-0.5291 -0.0423,-0.762 -0.1905,-0.9313 -0.1905,-0.1905 -0.40217,-0.2328 -1.143,-0.2328 l -3.95817,0 0,2.1166 z m -6.35,-4.1063 7.02733,0 c 1.43934,0 2.07434,0.1059 2.54,0.508 0.48684,0.381 0.6985,1.0795 0.6985,2.1802 0,1.5028 -0.35983,2.0955 -1.397,2.3283 1.016,0.1905 1.31234,0.6138 1.29117,1.8415 l 0,1.2911 -2.51883,0 0,-1.016 c -0.0212,-0.889 -0.254,-1.0583 -1.37584,-1.0371 l -3.78883,0 0,2.0531 -2.4765,0 z"
         id="path4550"
         inkscape:connector-curvature="0" />
      <path
         style="fill:#231f20;fill-opacity:1;fill-rule:nonzero;stroke:none"
         d="m -187.36858,1079.2446 0,1.8415 -6.58283,0 0,1.397 6.20183,0 0,1.6087 -6.20183,0 0,1.4393 6.6675,0 0,1.8626 -9.12283,0 0,-8.1491 z"
         id="path4552"
         inkscape:connector-curvature="0" />
      <path
         style="fill:#231f20;fill-opacity:1;fill-rule:nonzero;stroke:none"
         d="m -182.56374,1081.2555 -3.64067,0 0,-2.0109 9.73667,0 0,2.0109 -3.6195,0 0,6.1382 -2.4765,0 z"
         id="path4554"
         inkscape:connector-curvature="0" />
      <path
         style="fill:#231f20;fill-opacity:1;fill-rule:nonzero;stroke:none"
         d="m -166.15986,1079.2446 0,1.8415 -6.58283,0 0,1.397 6.20183,0 0,1.6087 -6.20183,0 0,1.4393 6.6675,0 0,1.8626 -9.12255,0 0,-8.1491 z"
         id="path4556"
         inkscape:connector-curvature="0" />
      <path
         style="fill:#231f20;fill-opacity:1;fill-rule:nonzero;stroke:none"
         d="m -154.37003,1084.3246 c 0,1.1853 -0.0423,1.5875 -0.21166,1.9473 -0.3175,0.6985 -0.97367,1.0372 -2.24367,1.1218 -0.508,0.042 -1.48167,0.063 -3.1115,0.063 -2.3495,0 -3.1115,-0.127 -3.76767,-0.5503 -0.80433,-0.508 -1.03716,-1.3758 -1.03716,-3.7888 0,-2.1378 0.254,-2.921 1.10066,-3.4078 0.74084,-0.4233 1.524,-0.5292 3.81,-0.5292 3.02684,0 3.683,0.063 4.3815,0.4022 0.67734,0.3175 0.97367,1.0372 0.97367,2.2436 l 0,0.2752 -2.37067,0 c -0.0423,-0.889 -0.23283,-0.9736 -2.39183,-0.9736 -2.01083,0 -2.39183,0.042 -2.68817,0.3174 -0.29633,0.2752 -0.35983,0.5927 -0.35983,1.9262 0,1.9473 0.1905,2.0955 2.56117,2.0955 1.8415,0 2.11666,-0.021 2.45533,-0.1482 0.35983,-0.1482 0.48683,-0.4233 0.48683,-0.9948 z"
         id="path4558"
         inkscape:connector-curvature="0" />
      <path
         style="fill:#ed1c24;fill-opacity:1;fill-rule:nonzero;stroke:none"
         d="m -226.39963,1095.7969 c 1.67217,0 2.0955,-0.3387 2.0955,-1.651 0,-1.2912 -0.42333,-1.6299 -2.159,-1.6299 l -5.29167,0 0,3.2809 z m -6.35,-4.1064 6.731,0 c 1.22767,0 1.79917,0.1694 2.24367,0.635 0.3175,0.3599 0.48683,0.9949 0.48683,1.8627 0,1.3123 -0.29633,1.778 -1.29117,2.0108 0.8255,0.1694 1.143,0.5927 1.143,1.5452 l 0,2.0955 -0.97366,0 0,-1.5452 c 0.0212,-1.397 -0.33867,-1.7568 -1.75684,-1.7356 l -5.588,0 0,3.2808 -0.99483,0 z"
         id="path4560"
         inkscape:connector-curvature="0" />
      <path
         style="fill:#ed1c24;fill-opacity:1;fill-rule:nonzero;stroke:none"
         d="m -220.34596,1092.9605 c -0.33867,0.3599 -0.42334,0.9525 -0.42334,2.8152 0,1.8626 0.0847,2.4553 0.42334,2.794 0.42333,0.4445 0.93133,0.508 3.81,0.508 2.87866,0 3.38666,-0.063 3.78883,-0.508 0.35983,-0.3387 0.4445,-0.9314 0.4445,-2.794 0,-1.8627 -0.0847,-2.4553 -0.4445,-2.8152 -0.35983,-0.4021 -1.05833,-0.4868 -3.7465,-0.4868 -2.81517,0 -3.45017,0.085 -3.85233,0.4868 m 8.40316,-0.5926 c 0.52917,0.5291 0.65589,1.1641 0.65589,3.4078 0,2.2225 -0.12672,2.8575 -0.65589,3.4078 -0.61383,0.6562 -1.24883,0.7408 -4.59316,0.7408 -3.34434,0 -3.97934,-0.085 -4.59317,-0.7408 -0.52917,-0.5503 -0.65617,-1.1853 -0.65617,-3.4078 0,-2.2437 0.127,-2.8787 0.65617,-3.4078 0.61383,-0.6562 1.24883,-0.762 4.6355,-0.762 3.302,0 3.937,0.1058 4.55083,0.762 z"
         id="path4562"
         inkscape:connector-curvature="0" />
      <path
         style="fill:#ed1c24;fill-opacity:1;fill-rule:nonzero;stroke:none"
         d="m -203.11658,1099.0353 c 1.62984,0 2.01084,-0.3175 2.01084,-1.5663 0,-1.2488 -0.35984,-1.5028 -2.2225,-1.5028 l -5.24934,0 0,3.0691 z m -0.59266,-3.8311 c 1.29116,0 1.60866,-0.042 1.88383,-0.2117 0.29633,-0.1693 0.42333,-0.5291 0.42333,-1.1006 0,-1.0372 -0.40216,-1.3759 -1.73566,-1.3759 l -5.43984,0 0,2.6882 z m -5.842,-3.5137 6.51933,0 c 1.18533,0 1.67217,0.127 2.07433,0.4869 0.40217,0.381 0.5715,0.8678 0.5715,1.6933 0,0.8043 -0.1905,1.2065 -0.6985,1.4817 -0.16933,0.1058 -0.254,0.1481 -0.381,0.1905 0.9525,0.1693 1.37584,0.7408 1.37584,1.8838 0,0.9101 -0.16934,1.4393 -0.59267,1.8415 -0.4445,0.4021 -1.016,0.5715 -1.98967,0.5715 l -6.87916,0 z"
         id="path4564"
         inkscape:connector-curvature="0" />
      <path
         style="fill:#ed1c24;fill-opacity:1;fill-rule:nonzero;stroke:none"
         d="m -197.25341,1092.9605 c -0.33867,0.3599 -0.42333,0.9525 -0.42333,2.8152 0,1.8626 0.0847,2.4553 0.42333,2.794 0.42333,0.4445 0.93133,0.508 3.78883,0.508 2.87867,0 3.38667,-0.063 3.81,-0.508 0.33867,-0.3387 0.42334,-0.9314 0.42334,-2.794 0,-1.8627 -0.0847,-2.4553 -0.42334,-2.8152 -0.381,-0.4021 -1.05833,-0.4868 -3.7465,-0.4868 -2.81516,0 -3.47133,0.085 -3.85233,0.4868 m 8.382,-0.5926 c 0.52917,0.5291 0.65617,1.1641 0.65617,3.4078 0,2.2225 -0.127,2.8575 -0.65617,3.4078 -0.61383,0.6562 -1.22767,0.7408 -4.59317,0.7408 -3.34433,0 -3.95816,-0.085 -4.59316,-0.7408 -0.508,-0.5503 -0.635,-1.1853 -0.635,-3.4078 0,-2.2437 0.127,-2.8787 0.635,-3.4078 0.635,-0.6562 1.24883,-0.762 4.65666,-0.762 3.28084,0 3.91584,0.1058 4.52967,0.762 z"
         id="path4566"
         inkscape:connector-curvature="0" />
      <path
         style="fill:#ed1c24;fill-opacity:1;fill-rule:nonzero;stroke:none"
         d="m -183.34691,1092.516 -4.1275,0 0,-0.8255 9.24983,0 0,0.8255 -4.1275,0 0,7.3237 -0.99483,0 z"
         id="path4568"
         inkscape:connector-curvature="0" />
      <path
         style="fill:#ed1c24;fill-opacity:1;fill-rule:nonzero;stroke:none"
         d="m -177.12391,1091.6905 0.97367,0 0,8.1492 -0.97367,0 z"
         id="path4570-9"
         inkscape:connector-curvature="0" />
      <path
         style="fill:#ed1c24;fill-opacity:1;fill-rule:nonzero;stroke:none"
         d="m -164.67819,1097.1092 0,0.3386 c 0,0.9737 -0.0847,1.4182 -0.40217,1.778 -0.3175,0.3599 -0.71967,0.5292 -1.4605,0.6139 -0.46567,0.042 -1.86267,0.085 -2.96333,0.085 -2.94217,0 -3.66184,-0.1059 -4.25422,-0.7409 -0.52917,-0.5291 -0.65617,-1.1853 -0.65617,-3.4078 0,-2.54 0.16934,-3.1961 1.016,-3.7041 0.61355,-0.4022 1.29089,-0.4657 4.65639,-0.4657 2.032,0 2.75166,0.1058 3.2385,0.4657 0.55033,0.381 0.71966,0.889 0.762,2.2013 l -0.9525,0 0,-0.2117 c 0,-1.4393 -0.33867,-1.5875 -3.76767,-1.5875 -3.91555,0 -3.93672,0 -3.93672,3.302 0,1.8627 0.0847,2.4553 0.44422,2.794 0.381,0.4022 0.99483,0.508 3.28083,0.508 3.683,0 4.04284,-0.127 4.04284,-1.5028 l 0,-0.4657 z"
         id="path4572"
         inkscape:connector-curvature="0" />
      <path
         style="fill:#ed1c24;fill-opacity:1;fill-rule:nonzero;stroke:none"
         d="m -162.30753,1097.2997 0,0.2328 c 0,0.8043 0.1905,1.143 0.6985,1.3123 0.48684,0.1694 1.397,0.2329 2.8575,0.2329 3.19617,0 3.76767,-0.254 3.76767,-1.6087 0,-0.6773 -0.21167,-0.9736 -0.762,-1.143 -0.55033,-0.1481 -0.59267,-0.1481 -4.23333,-0.1693 -1.48167,-0.021 -2.11667,-0.127 -2.6035,-0.4445 -0.48684,-0.3387 -0.6985,-0.7832 -0.6985,-1.5875 0,-1.2277 0.4445,-1.9262 1.41816,-2.2013 0.6985,-0.2117 1.75684,-0.3175 3.429,-0.3175 1.88384,0 2.8575,0.1481 3.429,0.4868 0.59267,0.381 0.762,0.8043 0.80434,1.9473 l -0.9525,0 c 0,-0.6561 -0.127,-0.9525 -0.381,-1.1641 -0.381,-0.2964 -1.22767,-0.4022 -2.87867,-0.4022 -3.21733,0 -3.83117,0.254 -3.83117,1.5663 0,0.5504 0.14817,0.8679 0.48684,1.0372 0.4445,0.1905 0.80433,0.2117 3.1115,0.2328 2.58233,0 3.15383,0.063 3.7465,0.3387 0.65616,0.3175 0.93133,0.8678 0.93133,1.8838 0,1.1218 -0.381,1.7992 -1.18533,2.0955 -0.61384,0.2117 -1.54517,0.2963 -3.40784,0.2963 -1.98966,0 -2.921,-0.085 -3.57716,-0.2963 -0.74084,-0.254 -1.143,-0.889 -1.143,-1.7568 l 0,-0.5715 z"
         id="path4574"
         inkscape:connector-curvature="0" />
      <path
         style="fill:#ed1c24;fill-opacity:1;fill-rule:nonzero;stroke:none"
         d="m -233.00363,1089.1505 0,0.8255 78.65477,0 0,-0.8255 -78.65477,0 z"
         id="path4576"
         inkscape:connector-curvature="0" />
      <path
         style="fill:#231f20;fill-opacity:1;fill-rule:nonzero;stroke:none"
         d="m -243.75618,1080.7686 0,7.8316 -6.20181,6.4347 -8.76294,0 -6.20178,-6.4347 0,-7.8316 -3.55597,8.5724 4.14864,9.9907 9.99058,4.1486 9.99061,-4.1486 4.14855,-9.9907 z"
         id="path4578"
         inkscape:connector-curvature="0" />
      <path
         style="fill:#231f20;fill-opacity:1;fill-rule:nonzero;stroke:none"
         d="m -252.58263,1085.7216 -1.75683,3.0056 -1.7568,-3.0056 c -1.41817,0.6561 -2.413,2.0955 -2.413,3.7676 0,2.3072 1.86266,4.1698 4.1698,4.1698 2.30717,0 4.16981,-1.8626 4.16981,-4.1698 0,-1.6721 -0.97367,-3.1115 -2.41298,-3.7676 z"
         id="path4580"
         inkscape:connector-curvature="0" />
      <path
         style="fill:#231f20;fill-opacity:1;fill-rule:nonzero;stroke:none"
         d="m -245.91518,1079.1388 -8.36078,-3.5348 -8.48775,3.5348 6.79445,-0.6562 1.6298,9.2286 1.62983,-9.2286 z"
         id="path4582"
         inkscape:connector-curvature="0" />
    </g>
    <g
       transform="matrix(1.2312906,0,0,1.2312906,623.69098,-1109.995)"
       id="g4784">
      <path
         inkscape:connector-curvature="0"
         id="path4786"
         d="m -222.6108,1084.3246 c -0.0212,1.1853 -0.0423,1.5875 -0.21166,1.9473 -0.3175,0.6985 -0.99484,1.0372 -2.26484,1.1218 -0.48683,0.042 -1.4605,0.063 -3.09033,0.063 -2.3495,0 -3.1115,-0.127 -3.76767,-0.5503 -0.80433,-0.508 -1.03716,-1.3758 -1.03716,-3.7888 0,-2.1378 0.23283,-2.921 1.10066,-3.4078 0.74084,-0.4233 1.50284,-0.5292 3.78884,-0.5292 3.048,0 3.70416,0.063 4.40266,0.4022 0.65617,0.3175 0.97367,1.0372 0.97367,2.2436 l 0,0.2752 -2.37067,0 c -0.0423,-0.889 -0.23283,-0.9736 -2.39183,-0.9736 -2.032,0 -2.39183,0.042 -2.68817,0.3174 -0.29633,0.2752 -0.35983,0.5927 -0.35983,1.9262 0,1.9473 0.1905,2.0955 2.56117,2.0955 1.8415,0 2.11666,-0.021 2.45533,-0.1482 0.35983,-0.1482 0.48683,-0.4233 0.48683,-0.9948 z"
         style="fill:#231f20;fill-opacity:1;fill-rule:nonzero;stroke:none" />
      <path
         inkscape:connector-curvature="0"
         id="path4788"
         d="m -218.20813,1081.4459 c -0.33867,0.254 -0.42333,0.6562 -0.42333,1.8204 0,1.2065 0.0847,1.6298 0.40216,1.9049 0.3175,0.254 0.71967,0.3175 2.6035,0.3175 2.13784,0 2.56117,-0.085 2.8575,-0.4656 0.23284,-0.2963 0.29634,-0.7197 0.29634,-1.7992 0,-2.0531 -0.0423,-2.0743 -3.09034,-2.0743 -1.82033,0 -2.32833,0.063 -2.64583,0.2963 m 6.07483,-2.1801 c 1.26972,0.2328 1.88356,0.889 2.05289,2.2013 0.0423,0.3175 0.0635,0.9737 0.0635,1.9685 0,1.9685 -0.21167,2.7728 -0.889,3.3443 -0.50772,0.4022 -1.18505,0.6138 -2.37039,0.6562 -0.4445,0.021 -1.524,0.042 -2.32833,0.042 -1.92617,0 -2.921,-0.042 -3.40783,-0.1482 -0.91017,-0.1482 -1.43934,-0.4868 -1.73567,-1.1007 -0.3175,-0.5926 -0.40217,-1.1853 -0.40217,-2.9633 0,-1.3758 0.0212,-1.7145 0.16934,-2.2648 0.23283,-0.8678 0.71966,-1.3335 1.62983,-1.6086 0.6985,-0.1905 1.43933,-0.2329 3.57717,-0.2329 2.3495,0 3.06916,0.021 3.64066,0.1059 z"
         style="fill:#231f20;fill-opacity:1;fill-rule:nonzero;stroke:none" />
      <path
         inkscape:connector-curvature="0"
         id="path4790"
         d="m -202.01591,1083.3509 c 1.18533,0 1.41817,-0.1481 1.41817,-0.9525 0,-0.5291 -0.0423,-0.762 -0.1905,-0.9313 -0.1905,-0.1905 -0.40217,-0.2328 -1.143,-0.2328 l -3.95817,0 0,2.1166 z m -6.35,-4.1063 7.02733,0 c 1.43934,0 2.07434,0.1059 2.54,0.508 0.48684,0.381 0.6985,1.0795 0.6985,2.1802 0,1.5028 -0.35983,2.0955 -1.397,2.3283 1.016,0.1905 1.31234,0.6138 1.29117,1.8415 l 0,1.2911 -2.51883,0 0,-1.016 c -0.0212,-0.889 -0.254,-1.0583 -1.37584,-1.0371 l -3.78883,0 0,2.0531 -2.4765,0 z"
         style="fill:#231f20;fill-opacity:1;fill-rule:nonzero;stroke:none" />
      <path
         inkscape:connector-curvature="0"
         id="path4792"
         d="m -187.36858,1079.2446 0,1.8415 -6.58283,0 0,1.397 6.20183,0 0,1.6087 -6.20183,0 0,1.4393 6.6675,0 0,1.8626 -9.12283,0 0,-8.1491 z"
         style="fill:#231f20;fill-opacity:1;fill-rule:nonzero;stroke:none" />
      <path
         inkscape:connector-curvature="0"
         id="path4794"
         d="m -182.56374,1081.2555 -3.64067,0 0,-2.0109 9.73667,0 0,2.0109 -3.6195,0 0,6.1382 -2.4765,0 z"
         style="fill:#231f20;fill-opacity:1;fill-rule:nonzero;stroke:none" />
      <path
         inkscape:connector-curvature="0"
         id="path4796"
         d="m -166.15986,1079.2446 0,1.8415 -6.58283,0 0,1.397 6.20183,0 0,1.6087 -6.20183,0 0,1.4393 6.6675,0 0,1.8626 -9.12255,0 0,-8.1491 z"
         style="fill:#231f20;fill-opacity:1;fill-rule:nonzero;stroke:none" />
      <path
         inkscape:connector-curvature="0"
         id="path4798"
         d="m -154.37003,1084.3246 c 0,1.1853 -0.0423,1.5875 -0.21166,1.9473 -0.3175,0.6985 -0.97367,1.0372 -2.24367,1.1218 -0.508,0.042 -1.48167,0.063 -3.1115,0.063 -2.3495,0 -3.1115,-0.127 -3.76767,-0.5503 -0.80433,-0.508 -1.03716,-1.3758 -1.03716,-3.7888 0,-2.1378 0.254,-2.921 1.10066,-3.4078 0.74084,-0.4233 1.524,-0.5292 3.81,-0.5292 3.02684,0 3.683,0.063 4.3815,0.4022 0.67734,0.3175 0.97367,1.0372 0.97367,2.2436 l 0,0.2752 -2.37067,0 c -0.0423,-0.889 -0.23283,-0.9736 -2.39183,-0.9736 -2.01083,0 -2.39183,0.042 -2.68817,0.3174 -0.29633,0.2752 -0.35983,0.5927 -0.35983,1.9262 0,1.9473 0.1905,2.0955 2.56117,2.0955 1.8415,0 2.11666,-0.021 2.45533,-0.1482 0.35983,-0.1482 0.48683,-0.4233 0.48683,-0.9948 z"
         style="fill:#231f20;fill-opacity:1;fill-rule:nonzero;stroke:none" />
      <path
         inkscape:connector-curvature="0"
         id="path4800"
         d="m -226.39963,1095.7969 c 1.67217,0 2.0955,-0.3387 2.0955,-1.651 0,-1.2912 -0.42333,-1.6299 -2.159,-1.6299 l -5.29167,0 0,3.2809 z m -6.35,-4.1064 6.731,0 c 1.22767,0 1.79917,0.1694 2.24367,0.635 0.3175,0.3599 0.48683,0.9949 0.48683,1.8627 0,1.3123 -0.29633,1.778 -1.29117,2.0108 0.8255,0.1694 1.143,0.5927 1.143,1.5452 l 0,2.0955 -0.97366,0 0,-1.5452 c 0.0212,-1.397 -0.33867,-1.7568 -1.75684,-1.7356 l -5.588,0 0,3.2808 -0.99483,0 z"
         style="fill:#ed1c24;fill-opacity:1;fill-rule:nonzero;stroke:none" />
      <path
         inkscape:connector-curvature="0"
         id="path4802"
         d="m -220.34596,1092.9605 c -0.33867,0.3599 -0.42334,0.9525 -0.42334,2.8152 0,1.8626 0.0847,2.4553 0.42334,2.794 0.42333,0.4445 0.93133,0.508 3.81,0.508 2.87866,0 3.38666,-0.063 3.78883,-0.508 0.35983,-0.3387 0.4445,-0.9314 0.4445,-2.794 0,-1.8627 -0.0847,-2.4553 -0.4445,-2.8152 -0.35983,-0.4021 -1.05833,-0.4868 -3.7465,-0.4868 -2.81517,0 -3.45017,0.085 -3.85233,0.4868 m 8.40316,-0.5926 c 0.52917,0.5291 0.65589,1.1641 0.65589,3.4078 0,2.2225 -0.12672,2.8575 -0.65589,3.4078 -0.61383,0.6562 -1.24883,0.7408 -4.59316,0.7408 -3.34434,0 -3.97934,-0.085 -4.59317,-0.7408 -0.52917,-0.5503 -0.65617,-1.1853 -0.65617,-3.4078 0,-2.2437 0.127,-2.8787 0.65617,-3.4078 0.61383,-0.6562 1.24883,-0.762 4.6355,-0.762 3.302,0 3.937,0.1058 4.55083,0.762 z"
         style="fill:#ed1c24;fill-opacity:1;fill-rule:nonzero;stroke:none" />
      <path
         inkscape:connector-curvature="0"
         id="path4804"
         d="m -203.11658,1099.0353 c 1.62984,0 2.01084,-0.3175 2.01084,-1.5663 0,-1.2488 -0.35984,-1.5028 -2.2225,-1.5028 l -5.24934,0 0,3.0691 z m -0.59266,-3.8311 c 1.29116,0 1.60866,-0.042 1.88383,-0.2117 0.29633,-0.1693 0.42333,-0.5291 0.42333,-1.1006 0,-1.0372 -0.40216,-1.3759 -1.73566,-1.3759 l -5.43984,0 0,2.6882 z m -5.842,-3.5137 6.51933,0 c 1.18533,0 1.67217,0.127 2.07433,0.4869 0.40217,0.381 0.5715,0.8678 0.5715,1.6933 0,0.8043 -0.1905,1.2065 -0.6985,1.4817 -0.16933,0.1058 -0.254,0.1481 -0.381,0.1905 0.9525,0.1693 1.37584,0.7408 1.37584,1.8838 0,0.9101 -0.16934,1.4393 -0.59267,1.8415 -0.4445,0.4021 -1.016,0.5715 -1.98967,0.5715 l -6.87916,0 z"
         style="fill:#ed1c24;fill-opacity:1;fill-rule:nonzero;stroke:none" />
      <path
         inkscape:connector-curvature="0"
         id="path4806"
         d="m -197.25341,1092.9605 c -0.33867,0.3599 -0.42333,0.9525 -0.42333,2.8152 0,1.8626 0.0847,2.4553 0.42333,2.794 0.42333,0.4445 0.93133,0.508 3.78883,0.508 2.87867,0 3.38667,-0.063 3.81,-0.508 0.33867,-0.3387 0.42334,-0.9314 0.42334,-2.794 0,-1.8627 -0.0847,-2.4553 -0.42334,-2.8152 -0.381,-0.4021 -1.05833,-0.4868 -3.7465,-0.4868 -2.81516,0 -3.47133,0.085 -3.85233,0.4868 m 8.382,-0.5926 c 0.52917,0.5291 0.65617,1.1641 0.65617,3.4078 0,2.2225 -0.127,2.8575 -0.65617,3.4078 -0.61383,0.6562 -1.22767,0.7408 -4.59317,0.7408 -3.34433,0 -3.95816,-0.085 -4.59316,-0.7408 -0.508,-0.5503 -0.635,-1.1853 -0.635,-3.4078 0,-2.2437 0.127,-2.8787 0.635,-3.4078 0.635,-0.6562 1.24883,-0.762 4.65666,-0.762 3.28084,0 3.91584,0.1058 4.52967,0.762 z"
         style="fill:#ed1c24;fill-opacity:1;fill-rule:nonzero;stroke:none" />
      <path
         inkscape:connector-curvature="0"
         id="path4808"
         d="m -183.34691,1092.516 -4.1275,0 0,-0.8255 9.24983,0 0,0.8255 -4.1275,0 0,7.3237 -0.99483,0 z"
         style="fill:#ed1c24;fill-opacity:1;fill-rule:nonzero;stroke:none" />
      <path
         inkscape:connector-curvature="0"
         id="path4810"
         d="m -177.12391,1091.6905 0.97367,0 0,8.1492 -0.97367,0 z"
         style="fill:#ed1c24;fill-opacity:1;fill-rule:nonzero;stroke:none" />
      <path
         inkscape:connector-curvature="0"
         id="path4812"
         d="m -164.67819,1097.1092 0,0.3386 c 0,0.9737 -0.0847,1.4182 -0.40217,1.778 -0.3175,0.3599 -0.71967,0.5292 -1.4605,0.6139 -0.46567,0.042 -1.86267,0.085 -2.96333,0.085 -2.94217,0 -3.66184,-0.1059 -4.25422,-0.7409 -0.52917,-0.5291 -0.65617,-1.1853 -0.65617,-3.4078 0,-2.54 0.16934,-3.1961 1.016,-3.7041 0.61355,-0.4022 1.29089,-0.4657 4.65639,-0.4657 2.032,0 2.75166,0.1058 3.2385,0.4657 0.55033,0.381 0.71966,0.889 0.762,2.2013 l -0.9525,0 0,-0.2117 c 0,-1.4393 -0.33867,-1.5875 -3.76767,-1.5875 -3.91555,0 -3.93672,0 -3.93672,3.302 0,1.8627 0.0847,2.4553 0.44422,2.794 0.381,0.4022 0.99483,0.508 3.28083,0.508 3.683,0 4.04284,-0.127 4.04284,-1.5028 l 0,-0.4657 z"
         style="fill:#ed1c24;fill-opacity:1;fill-rule:nonzero;stroke:none" />
      <path
         inkscape:connector-curvature="0"
         id="path4814"
         d="m -162.30753,1097.2997 0,0.2328 c 0,0.8043 0.1905,1.143 0.6985,1.3123 0.48684,0.1694 1.397,0.2329 2.8575,0.2329 3.19617,0 3.76767,-0.254 3.76767,-1.6087 0,-0.6773 -0.21167,-0.9736 -0.762,-1.143 -0.55033,-0.1481 -0.59267,-0.1481 -4.23333,-0.1693 -1.48167,-0.021 -2.11667,-0.127 -2.6035,-0.4445 -0.48684,-0.3387 -0.6985,-0.7832 -0.6985,-1.5875 0,-1.2277 0.4445,-1.9262 1.41816,-2.2013 0.6985,-0.2117 1.75684,-0.3175 3.429,-0.3175 1.88384,0 2.8575,0.1481 3.429,0.4868 0.59267,0.381 0.762,0.8043 0.80434,1.9473 l -0.9525,0 c 0,-0.6561 -0.127,-0.9525 -0.381,-1.1641 -0.381,-0.2964 -1.22767,-0.4022 -2.87867,-0.4022 -3.21733,0 -3.83117,0.254 -3.83117,1.5663 0,0.5504 0.14817,0.8679 0.48684,1.0372 0.4445,0.1905 0.80433,0.2117 3.1115,0.2328 2.58233,0 3.15383,0.063 3.7465,0.3387 0.65616,0.3175 0.93133,0.8678 0.93133,1.8838 0,1.1218 -0.381,1.7992 -1.18533,2.0955 -0.61384,0.2117 -1.54517,0.2963 -3.40784,0.2963 -1.98966,0 -2.921,-0.085 -3.57716,-0.2963 -0.74084,-0.254 -1.143,-0.889 -1.143,-1.7568 l 0,-0.5715 z"
         style="fill:#ed1c24;fill-opacity:1;fill-rule:nonzero;stroke:none" />
      <path
         inkscape:connector-curvature="0"
         id="path4816"
         d="m -233.00363,1089.1505 0,0.8255 78.65477,0 0,-0.8255 -78.65477,0 z"
         style="fill:#ed1c24;fill-opacity:1;fill-rule:nonzero;stroke:none" />
      <path
         inkscape:connector-curvature="0"
         id="path4818"
         d="m -243.75618,1080.7686 0,7.8316 -6.20181,6.4347 -8.76294,0 -6.20178,-6.4347 0,-7.8316 -3.55597,8.5724 4.14864,9.9907 9.99058,4.1486 9.99061,-4.1486 4.14855,-9.9907 z"
         style="fill:#231f20;fill-opacity:1;fill-rule:nonzero;stroke:none" />
      <path
         inkscape:connector-curvature="0"
         id="path4820"
         d="m -252.58263,1085.7216 -1.75683,3.0056 -1.7568,-3.0056 c -1.41817,0.6561 -2.413,2.0955 -2.413,3.7676 0,2.3072 1.86266,4.1698 4.1698,4.1698 2.30717,0 4.16981,-1.8626 4.16981,-4.1698 0,-1.6721 -0.97367,-3.1115 -2.41298,-3.7676 z"
         style="fill:#231f20;fill-opacity:1;fill-rule:nonzero;stroke:none" />
      <path
         inkscape:connector-curvature="0"
         id="path4822"
         d="m -245.91518,1079.1388 -8.36078,-3.5348 -8.48775,3.5348 6.79445,-0.6562 1.6298,9.2286 1.62983,-9.2286 z"
         style="fill:#231f20;fill-opacity:1;fill-rule:nonzero;stroke:none" />
    </g>
    <path
       style="opacity:0.15100002;fill:#000000;fill-opacity:1;stroke:none;stroke-width:7;stroke-miterlimit:4;stroke-dasharray:none;stroke-opacity:1"
       d="m 30.229919,271.45392 a 5.3149605,5.3149605 0 0 1 -5.31496,5.31496 5.3149605,5.3149605 0 0 1 -5.314961,-5.31496 5.3149605,5.3149605 0 0 1 5.314961,-5.31496 5.3149605,5.3149605 0 0 1 5.31496,5.31496 z"
       id="path3531"
       inkscape:connector-curvature="0" />
    <path
       style="opacity:0.15100002;fill:#000000;fill-opacity:1;stroke:none;stroke-width:7;stroke-miterlimit:4;stroke-dasharray:none;stroke-opacity:1"
       d="m 455.42675,271.45392 a 5.3149605,5.3149605 0 0 1 -5.31496,5.31496 5.3149605,5.3149605 0 0 1 -5.31496,-5.31496 5.3149605,5.3149605 0 0 1 5.31496,-5.31496 5.3149605,5.3149605 0 0 1 5.31496,5.31496 z"
       id="circle3533"
       inkscape:connector-curvature="0" />
    <g
       transform="matrix(0,1,-1,0,1053.8579,492.50794)"
       id="g4146">
      <path
         style="opacity:0.15100002;fill:#000000;fill-opacity:1;stroke:none;stroke-width:7;stroke-miterlimit:4;stroke-dasharray:none;stroke-opacity:1"
         d="m 347.29009,918.7041 a 5.3149605,5.3149605 0 0 1 -5.31496,5.31496 5.3149605,5.3149605 0 0 1 -5.31496,-5.31496 5.3149605,5.3149605 0 0 1 5.31496,-5.31496 5.3149605,5.3149605 0 0 1 5.31496,5.31496 z"
         id="circle4140"
         inkscape:connector-curvature="0" />
      <path
         style="opacity:0.15100002;fill:#000000;fill-opacity:1;stroke:none;stroke-width:7;stroke-miterlimit:4;stroke-dasharray:none;stroke-opacity:1"
         d="m 261.79009,963.7041 a 5.3149605,5.3149605 0 0 1 -5.31496,5.31496 5.3149605,5.3149605 0 0 1 -5.31496,-5.31496 5.3149605,5.3149605 0 0 1 5.31496,-5.31496 5.3149605,5.3149605 0 0 1 5.31496,5.31496 z"
         id="circle4144"
         inkscape:connector-curvature="0" />
    </g>
    <flowRoot
       xml:space="preserve"
       id="flowRoot4477"
       style="font-style:normal;font-weight:normal;font-size:40px;line-height:125%;font-family:sans-serif;letter-spacing:0px;word-spacing:0px;fill:#000000;fill-opacity:1;stroke:none;stroke-width:1px;stroke-linecap:butt;stroke-linejoin:miter;stroke-opacity:1"
       transform="translate(-2.4414065e-4,-1927.5591)"><flowRegion
         id="flowRegion4479"><rect
           id="rect4481"
           width="120.76945"
           height="54.822971"
           x="190.6886"
           y="1912.8595" /></flowRegion><flowPara
         id="flowPara4483"
         style="font-style:normal;font-variant:normal;font-weight:normal;font-stretch:normal;font-family:'Segoe UI Symbol';-inkscape-font-specification:'Segoe UI Symbol'" /></flowRoot>    <path
       d="M 827.81243,214.6052"
       style="fill:none;stroke:#000000;stroke-width:0.31889793;stroke-linecap:round;stroke-linejoin:round"
       id="path4485"
       inkscape:connector-curvature="0" />
    <path
       id="path4487"
       d="m 523.08821,214.92644 a 5.6692915,5.6692915 0 0 0 5.66929,-5.66929 5.6692915,5.6692915 0 0 0 -5.66929,-5.66929 5.6692915,5.6692915 0 0 0 -5.6693,5.66929 5.6692915,5.6692915 0 0 0 5.6693,5.66929 z"
       style="opacity:0.15100002;fill:#87efb0;fill-opacity:0.12426034;stroke:none;stroke-width:7;stroke-miterlimit:4;stroke-dasharray:none;stroke-opacity:1"
       inkscape:connector-curvature="0" />
    <path
       id="path4489"
       d="m 919.9386,214.92644 a 5.6692915,5.6692915 0 0 0 5.6693,-5.66929 5.6692915,5.6692915 0 0 0 -5.6693,-5.66929 5.6692915,5.6692915 0 0 0 -5.66926,5.66929 5.6692915,5.6692915 0 0 0 5.66926,5.66929 z"
       style="opacity:0.15100002;fill:#87efb0;fill-opacity:0.12426034;stroke:none;stroke-width:7;stroke-miterlimit:4;stroke-dasharray:none;stroke-opacity:1"
       inkscape:connector-curvature="0" />
    <path
       inkscape:connector-curvature="0"
       id="path4491"
       style="fill:none;stroke:#000000;stroke-width:0.31889793;stroke-linecap:round;stroke-linejoin:round"
       d="m 629.38758,203.5879 c -1.50354,0 -2.94561,0.5976 -4.00878,1.6605" />
    <path
       inkscape:connector-curvature="0"
       id="path4493"
       style="fill:none;stroke:#000000;stroke-width:0.31889793;stroke-linecap:round;stroke-linejoin:round"
       d="m 625.37878,205.2484 c -1.06317,1.0632 -1.6605,2.5052 -1.6605,4.0088" />
    <path
       inkscape:connector-curvature="0"
       id="path4495"
       style="fill:none;stroke:#000000;stroke-width:0.31889793;stroke-linecap:round;stroke-linejoin:round"
       d="m 623.71829,209.2572 c 0,1.5036 0.5976,2.9456 1.6605,4.0088" />
    <path
       inkscape:connector-curvature="0"
       id="path4497"
       style="fill:none;stroke:#000000;stroke-width:0.31889793;stroke-linecap:round;stroke-linejoin:round"
       d="m 625.37878,213.266 c 1.06317,1.0632 2.50524,1.6605 4.00878,1.6605" />
    <path
       inkscape:connector-curvature="0"
       id="path4499"
       style="fill:none;stroke:#000000;stroke-width:0.31889793;stroke-linecap:round;stroke-linejoin:round"
       d="m 629.38758,214.9265 c 1.50363,0 2.94561,-0.5976 4.00878,-1.6605" />
    <path
       inkscape:connector-curvature="0"
       id="path4501"
       style="fill:none;stroke:#000000;stroke-width:0.31889793;stroke-linecap:round;stroke-linejoin:round"
       d="m 633.39637,213.266 c 1.06317,-1.0632 1.6605,-2.5052 1.6605,-4.0088" />
    <path
       inkscape:connector-curvature="0"
       id="path4503"
       style="fill:none;stroke:#000000;stroke-width:0.31889793;stroke-linecap:round;stroke-linejoin:round"
       d="m 635.05686,209.2572 c 0,-1.5036 -0.5976,-2.9456 -1.6605,-4.0088" />
    <path
       inkscape:connector-curvature="0"
       id="path4505"
       style="fill:none;stroke:#000000;stroke-width:0.31889793;stroke-linecap:round;stroke-linejoin:round"
       d="m 813.63924,203.5879 c -1.5036,0 -2.9456,0.5976 -4.0088,1.6605" />
    <path
       inkscape:connector-curvature="0"
       id="path4507"
       style="fill:none;stroke:#000000;stroke-width:0.31889793;stroke-linecap:round;stroke-linejoin:round"
       d="m 809.63044,205.2484 c -1.0631,1.0632 -1.6605,2.5052 -1.6605,4.0088" />
    <path
       inkscape:connector-curvature="0"
       id="path4509"
       style="fill:none;stroke:#000000;stroke-width:0.31889793;stroke-linecap:round;stroke-linejoin:round"
       d="m 807.96994,209.2572 c 0,1.5035 0.5976,2.9456 1.6605,4.0088" />
    <path
       inkscape:connector-curvature="0"
       id="path4511"
       style="fill:none;stroke:#000000;stroke-width:0.31889793;stroke-linecap:round;stroke-linejoin:round"
       d="m 809.63044,213.266 c 1.0632,1.0632 2.5052,1.6605 4.0088,1.6605" />
    <path
       inkscape:connector-curvature="0"
       id="path4513"
       style="fill:none;stroke:#000000;stroke-width:0.31889793;stroke-linecap:round;stroke-linejoin:round"
       d="m 813.63924,214.9265 c 1.5037,0 2.9456,-0.5976 4.0088,-1.6605" />
    <path
       inkscape:connector-curvature="0"
       id="path4515"
       style="fill:none;stroke:#000000;stroke-width:0.31889793;stroke-linecap:round;stroke-linejoin:round"
       d="m 817.64804,213.266 c 1.0632,-1.0632 1.6605,-2.5052 1.6605,-4.0088" />
    <path
       inkscape:connector-curvature="0"
       id="path4517"
       style="fill:none;stroke:#000000;stroke-width:0.31889793;stroke-linecap:round;stroke-linejoin:round"
       d="m 819.30854,209.2572 c 0,-1.5036 -0.5976,-2.9456 -1.6605,-4.0088" />
    <path
       inkscape:connector-curvature="0"
       id="path4519"
       style="fill:none;stroke:#000000;stroke-width:0.31889793;stroke-linecap:round;stroke-linejoin:round"
       d="m 633.39637,205.24841 c -1.06317,-1.0632 -2.50524,-1.6605 -4.00878,-1.6605" />
    <path
       inkscape:connector-curvature="0"
       id="path4521"
       style="fill:none;stroke:#000000;stroke-width:0.31889793;stroke-linecap:round;stroke-linejoin:round"
       d="m 817.64804,205.24841 c -1.0632,-1.0632 -2.5052,-1.6605 -4.0088,-1.6605" />
    <path
       inkscape:connector-curvature="0"
       id="path4523"
       style="fill:none;stroke:#000000;stroke-width:0.31889793;stroke-linecap:round;stroke-linejoin:round"
       d="M 629.38758,203.5879" />
    <path
       inkscape:connector-curvature="0"
       id="path4525"
       style="fill:none;stroke:#000000;stroke-width:0.31889793;stroke-linecap:round;stroke-linejoin:round"
       d="M 813.63924,203.5879" />
    <path
       style="opacity:0.15100002;fill:#87efb0;fill-opacity:0.12426034;stroke:none;stroke-width:7;stroke-miterlimit:4;stroke-dasharray:none;stroke-opacity:1"
       d="m 508.91499,60.312151 0,149.137569 c 0,7.85196 6.32126,14.17322 14.17323,14.17322 l 396.85038,0 c 7.8519,0 14.1732,-6.32126 14.1732,-14.17322 l 0,-149.137569 c 0,-7.85196 -6.3213,-14.17322 -14.1732,-14.17322 l -396.85038,0 c -7.85197,0 -14.17323,6.32126 -14.17323,14.17322 z"
       id="path4527"
       inkscape:connector-curvature="0" />
    <g
       transform="matrix(-1.2312906,0,0,-1.2312906,335.33578,1417.2618)"
       id="g4531">
      <path
         inkscape:connector-curvature="0"
         id="path4533"
         d="m -222.6108,1084.3246 c -0.0212,1.1853 -0.0423,1.5875 -0.21166,1.9473 -0.3175,0.6985 -0.99484,1.0372 -2.26484,1.1218 -0.48683,0.042 -1.4605,0.063 -3.09033,0.063 -2.3495,0 -3.1115,-0.127 -3.76767,-0.5503 -0.80433,-0.508 -1.03716,-1.3758 -1.03716,-3.7888 0,-2.1378 0.23283,-2.921 1.10066,-3.4078 0.74084,-0.4233 1.50284,-0.5292 3.78884,-0.5292 3.048,0 3.70416,0.063 4.40266,0.4022 0.65617,0.3175 0.97367,1.0372 0.97367,2.2436 l 0,0.2752 -2.37067,0 c -0.0423,-0.889 -0.23283,-0.9736 -2.39183,-0.9736 -2.032,0 -2.39183,0.042 -2.68817,0.3174 -0.29633,0.2752 -0.35983,0.5927 -0.35983,1.9262 0,1.9473 0.1905,2.0955 2.56117,2.0955 1.8415,0 2.11666,-0.021 2.45533,-0.1482 0.35983,-0.1482 0.48683,-0.4233 0.48683,-0.9948 z"
         style="fill:#231f20;fill-opacity:1;fill-rule:nonzero;stroke:none" />
      <path
         inkscape:connector-curvature="0"
         id="path4535"
         d="m -218.20813,1081.4459 c -0.33867,0.254 -0.42333,0.6562 -0.42333,1.8204 0,1.2065 0.0847,1.6298 0.40216,1.9049 0.3175,0.254 0.71967,0.3175 2.6035,0.3175 2.13784,0 2.56117,-0.085 2.8575,-0.4656 0.23284,-0.2963 0.29634,-0.7197 0.29634,-1.7992 0,-2.0531 -0.0423,-2.0743 -3.09034,-2.0743 -1.82033,0 -2.32833,0.063 -2.64583,0.2963 m 6.07483,-2.1801 c 1.26972,0.2328 1.88356,0.889 2.05289,2.2013 0.0423,0.3175 0.0635,0.9737 0.0635,1.9685 0,1.9685 -0.21167,2.7728 -0.889,3.3443 -0.50772,0.4022 -1.18505,0.6138 -2.37039,0.6562 -0.4445,0.021 -1.524,0.042 -2.32833,0.042 -1.92617,0 -2.921,-0.042 -3.40783,-0.1482 -0.91017,-0.1482 -1.43934,-0.4868 -1.73567,-1.1007 -0.3175,-0.5926 -0.40217,-1.1853 -0.40217,-2.9633 0,-1.3758 0.0212,-1.7145 0.16934,-2.2648 0.23283,-0.8678 0.71966,-1.3335 1.62983,-1.6086 0.6985,-0.1905 1.43933,-0.2329 3.57717,-0.2329 2.3495,0 3.06916,0.021 3.64066,0.1059 z"
         style="fill:#231f20;fill-opacity:1;fill-rule:nonzero;stroke:none" />
      <path
         inkscape:connector-curvature="0"
         id="path4537"
         d="m -202.01591,1083.3509 c 1.18533,0 1.41817,-0.1481 1.41817,-0.9525 0,-0.5291 -0.0423,-0.762 -0.1905,-0.9313 -0.1905,-0.1905 -0.40217,-0.2328 -1.143,-0.2328 l -3.95817,0 0,2.1166 z m -6.35,-4.1063 7.02733,0 c 1.43934,0 2.07434,0.1059 2.54,0.508 0.48684,0.381 0.6985,1.0795 0.6985,2.1802 0,1.5028 -0.35983,2.0955 -1.397,2.3283 1.016,0.1905 1.31234,0.6138 1.29117,1.8415 l 0,1.2911 -2.51883,0 0,-1.016 c -0.0212,-0.889 -0.254,-1.0583 -1.37584,-1.0371 l -3.78883,0 0,2.0531 -2.4765,0 z"
         style="fill:#231f20;fill-opacity:1;fill-rule:nonzero;stroke:none" />
      <path
         inkscape:connector-curvature="0"
         id="path4539"
         d="m -187.36858,1079.2446 0,1.8415 -6.58283,0 0,1.397 6.20183,0 0,1.6087 -6.20183,0 0,1.4393 6.6675,0 0,1.8626 -9.12283,0 0,-8.1491 z"
         style="fill:#231f20;fill-opacity:1;fill-rule:nonzero;stroke:none" />
      <path
         inkscape:connector-curvature="0"
         id="path4541"
         d="m -182.56374,1081.2555 -3.64067,0 0,-2.0109 9.73667,0 0,2.0109 -3.6195,0 0,6.1382 -2.4765,0 z"
         style="fill:#231f20;fill-opacity:1;fill-rule:nonzero;stroke:none" />
      <path
         inkscape:connector-curvature="0"
         id="path4543"
         d="m -166.15986,1079.2446 0,1.8415 -6.58283,0 0,1.397 6.20183,0 0,1.6087 -6.20183,0 0,1.4393 6.6675,0 0,1.8626 -9.12255,0 0,-8.1491 z"
         style="fill:#231f20;fill-opacity:1;fill-rule:nonzero;stroke:none" />
      <path
         inkscape:connector-curvature="0"
         id="path4545"
         d="m -154.37003,1084.3246 c 0,1.1853 -0.0423,1.5875 -0.21166,1.9473 -0.3175,0.6985 -0.97367,1.0372 -2.24367,1.1218 -0.508,0.042 -1.48167,0.063 -3.1115,0.063 -2.3495,0 -3.1115,-0.127 -3.76767,-0.5503 -0.80433,-0.508 -1.03716,-1.3758 -1.03716,-3.7888 0,-2.1378 0.254,-2.921 1.10066,-3.4078 0.74084,-0.4233 1.524,-0.5292 3.81,-0.5292 3.02684,0 3.683,0.063 4.3815,0.4022 0.67734,0.3175 0.97367,1.0372 0.97367,2.2436 l 0,0.2752 -2.37067,0 c -0.0423,-0.889 -0.23283,-0.9736 -2.39183,-0.9736 -2.01083,0 -2.39183,0.042 -2.68817,0.3174 -0.29633,0.2752 -0.35983,0.5927 -0.35983,1.9262 0,1.9473 0.1905,2.0955 2.56117,2.0955 1.8415,0 2.11666,-0.021 2.45533,-0.1482 0.35983,-0.1482 0.48683,-0.4233 0.48683,-0.9948 z"
         style="fill:#231f20;fill-opacity:1;fill-rule:nonzero;stroke:none" />
      <path
         inkscape:connector-curvature="0"
         id="path4547"
         d="m -226.39963,1095.7969 c 1.67217,0 2.0955,-0.3387 2.0955,-1.651 0,-1.2912 -0.42333,-1.6299 -2.159,-1.6299 l -5.29167,0 0,3.2809 z m -6.35,-4.1064 6.731,0 c 1.22767,0 1.79917,0.1694 2.24367,0.635 0.3175,0.3599 0.48683,0.9949 0.48683,1.8627 0,1.3123 -0.29633,1.778 -1.29117,2.0108 0.8255,0.1694 1.143,0.5927 1.143,1.5452 l 0,2.0955 -0.97366,0 0,-1.5452 c 0.0212,-1.397 -0.33867,-1.7568 -1.75684,-1.7356 l -5.588,0 0,3.2808 -0.99483,0 z"
         style="fill:#ed1c24;fill-opacity:1;fill-rule:nonzero;stroke:none" />
      <path
         inkscape:connector-curvature="0"
         id="path4549"
         d="m -220.34596,1092.9605 c -0.33867,0.3599 -0.42334,0.9525 -0.42334,2.8152 0,1.8626 0.0847,2.4553 0.42334,2.794 0.42333,0.4445 0.93133,0.508 3.81,0.508 2.87866,0 3.38666,-0.063 3.78883,-0.508 0.35983,-0.3387 0.4445,-0.9314 0.4445,-2.794 0,-1.8627 -0.0847,-2.4553 -0.4445,-2.8152 -0.35983,-0.4021 -1.05833,-0.4868 -3.7465,-0.4868 -2.81517,0 -3.45017,0.085 -3.85233,0.4868 m 8.40316,-0.5926 c 0.52917,0.5291 0.65589,1.1641 0.65589,3.4078 0,2.2225 -0.12672,2.8575 -0.65589,3.4078 -0.61383,0.6562 -1.24883,0.7408 -4.59316,0.7408 -3.34434,0 -3.97934,-0.085 -4.59317,-0.7408 -0.52917,-0.5503 -0.65617,-1.1853 -0.65617,-3.4078 0,-2.2437 0.127,-2.8787 0.65617,-3.4078 0.61383,-0.6562 1.24883,-0.762 4.6355,-0.762 3.302,0 3.937,0.1058 4.55083,0.762 z"
         style="fill:#ed1c24;fill-opacity:1;fill-rule:nonzero;stroke:none" />
      <path
         inkscape:connector-curvature="0"
         id="path4551"
         d="m -203.11658,1099.0353 c 1.62984,0 2.01084,-0.3175 2.01084,-1.5663 0,-1.2488 -0.35984,-1.5028 -2.2225,-1.5028 l -5.24934,0 0,3.0691 z m -0.59266,-3.8311 c 1.29116,0 1.60866,-0.042 1.88383,-0.2117 0.29633,-0.1693 0.42333,-0.5291 0.42333,-1.1006 0,-1.0372 -0.40216,-1.3759 -1.73566,-1.3759 l -5.43984,0 0,2.6882 z m -5.842,-3.5137 6.51933,0 c 1.18533,0 1.67217,0.127 2.07433,0.4869 0.40217,0.381 0.5715,0.8678 0.5715,1.6933 0,0.8043 -0.1905,1.2065 -0.6985,1.4817 -0.16933,0.1058 -0.254,0.1481 -0.381,0.1905 0.9525,0.1693 1.37584,0.7408 1.37584,1.8838 0,0.9101 -0.16934,1.4393 -0.59267,1.8415 -0.4445,0.4021 -1.016,0.5715 -1.98967,0.5715 l -6.87916,0 z"
         style="fill:#ed1c24;fill-opacity:1;fill-rule:nonzero;stroke:none" />
      <path
         inkscape:connector-curvature="0"
         id="path4553"
         d="m -197.25341,1092.9605 c -0.33867,0.3599 -0.42333,0.9525 -0.42333,2.8152 0,1.8626 0.0847,2.4553 0.42333,2.794 0.42333,0.4445 0.93133,0.508 3.78883,0.508 2.87867,0 3.38667,-0.063 3.81,-0.508 0.33867,-0.3387 0.42334,-0.9314 0.42334,-2.794 0,-1.8627 -0.0847,-2.4553 -0.42334,-2.8152 -0.381,-0.4021 -1.05833,-0.4868 -3.7465,-0.4868 -2.81516,0 -3.47133,0.085 -3.85233,0.4868 m 8.382,-0.5926 c 0.52917,0.5291 0.65617,1.1641 0.65617,3.4078 0,2.2225 -0.127,2.8575 -0.65617,3.4078 -0.61383,0.6562 -1.22767,0.7408 -4.59317,0.7408 -3.34433,0 -3.95816,-0.085 -4.59316,-0.7408 -0.508,-0.5503 -0.635,-1.1853 -0.635,-3.4078 0,-2.2437 0.127,-2.8787 0.635,-3.4078 0.635,-0.6562 1.24883,-0.762 4.65666,-0.762 3.28084,0 3.91584,0.1058 4.52967,0.762 z"
         style="fill:#ed1c24;fill-opacity:1;fill-rule:nonzero;stroke:none" />
      <path
         inkscape:connector-curvature="0"
         id="path4555"
         d="m -183.34691,1092.516 -4.1275,0 0,-0.8255 9.24983,0 0,0.8255 -4.1275,0 0,7.3237 -0.99483,0 z"
         style="fill:#ed1c24;fill-opacity:1;fill-rule:nonzero;stroke:none" />
      <path
         inkscape:connector-curvature="0"
         id="path4557"
         d="m -177.12391,1091.6905 0.97367,0 0,8.1492 -0.97367,0 z"
         style="fill:#ed1c24;fill-opacity:1;fill-rule:nonzero;stroke:none" />
      <path
         inkscape:connector-curvature="0"
         id="path4559"
         d="m -164.67819,1097.1092 0,0.3386 c 0,0.9737 -0.0847,1.4182 -0.40217,1.778 -0.3175,0.3599 -0.71967,0.5292 -1.4605,0.6139 -0.46567,0.042 -1.86267,0.085 -2.96333,0.085 -2.94217,0 -3.66184,-0.1059 -4.25422,-0.7409 -0.52917,-0.5291 -0.65617,-1.1853 -0.65617,-3.4078 0,-2.54 0.16934,-3.1961 1.016,-3.7041 0.61355,-0.4022 1.29089,-0.4657 4.65639,-0.4657 2.032,0 2.75166,0.1058 3.2385,0.4657 0.55033,0.381 0.71966,0.889 0.762,2.2013 l -0.9525,0 0,-0.2117 c 0,-1.4393 -0.33867,-1.5875 -3.76767,-1.5875 -3.91555,0 -3.93672,0 -3.93672,3.302 0,1.8627 0.0847,2.4553 0.44422,2.794 0.381,0.4022 0.99483,0.508 3.28083,0.508 3.683,0 4.04284,-0.127 4.04284,-1.5028 l 0,-0.4657 z"
         style="fill:#ed1c24;fill-opacity:1;fill-rule:nonzero;stroke:none" />
      <path
         inkscape:connector-curvature="0"
         id="path4561"
         d="m -162.30753,1097.2997 0,0.2328 c 0,0.8043 0.1905,1.143 0.6985,1.3123 0.48684,0.1694 1.397,0.2329 2.8575,0.2329 3.19617,0 3.76767,-0.254 3.76767,-1.6087 0,-0.6773 -0.21167,-0.9736 -0.762,-1.143 -0.55033,-0.1481 -0.59267,-0.1481 -4.23333,-0.1693 -1.48167,-0.021 -2.11667,-0.127 -2.6035,-0.4445 -0.48684,-0.3387 -0.6985,-0.7832 -0.6985,-1.5875 0,-1.2277 0.4445,-1.9262 1.41816,-2.2013 0.6985,-0.2117 1.75684,-0.3175 3.429,-0.3175 1.88384,0 2.8575,0.1481 3.429,0.4868 0.59267,0.381 0.762,0.8043 0.80434,1.9473 l -0.9525,0 c 0,-0.6561 -0.127,-0.9525 -0.381,-1.1641 -0.381,-0.2964 -1.22767,-0.4022 -2.87867,-0.4022 -3.21733,0 -3.83117,0.254 -3.83117,1.5663 0,0.5504 0.14817,0.8679 0.48684,1.0372 0.4445,0.1905 0.80433,0.2117 3.1115,0.2328 2.58233,0 3.15383,0.063 3.7465,0.3387 0.65616,0.3175 0.93133,0.8678 0.93133,1.8838 0,1.1218 -0.381,1.7992 -1.18533,2.0955 -0.61384,0.2117 -1.54517,0.2963 -3.40784,0.2963 -1.98966,0 -2.921,-0.085 -3.57716,-0.2963 -0.74084,-0.254 -1.143,-0.889 -1.143,-1.7568 l 0,-0.5715 z"
         style="fill:#ed1c24;fill-opacity:1;fill-rule:nonzero;stroke:none" />
      <path
         inkscape:connector-curvature="0"
         id="path4563"
         d="m -233.00363,1089.1505 0,0.8255 78.65477,0 0,-0.8255 -78.65477,0 z"
         style="fill:#ed1c24;fill-opacity:1;fill-rule:nonzero;stroke:none" />
      <path
         inkscape:connector-curvature="0"
         id="path4565"
         d="m -243.75618,1080.7686 0,7.8316 -6.20181,6.4347 -8.76294,0 -6.20178,-6.4347 0,-7.8316 -3.55597,8.5724 4.14864,9.9907 9.99058,4.1486 9.99061,-4.1486 4.14855,-9.9907 z"
         style="fill:#231f20;fill-opacity:1;fill-rule:nonzero;stroke:none" />
      <path
         inkscape:connector-curvature="0"
         id="path4567"
         d="m -252.58263,1085.7216 -1.75683,3.0056 -1.7568,-3.0056 c -1.41817,0.6561 -2.413,2.0955 -2.413,3.7676 0,2.3072 1.86266,4.1698 4.1698,4.1698 2.30717,0 4.16981,-1.8626 4.16981,-4.1698 0,-1.6721 -0.97367,-3.1115 -2.41298,-3.7676 z"
         style="fill:#231f20;fill-opacity:1;fill-rule:nonzero;stroke:none" />
      <path
         inkscape:connector-curvature="0"
         id="path4569"
         d="m -245.91518,1079.1388 -8.36078,-3.5348 -8.48775,3.5348 6.79445,-0.6562 1.6298,9.2286 1.62983,-9.2286 z"
         style="fill:#231f20;fill-opacity:1;fill-rule:nonzero;stroke:none" />
    </g>
    <path
       inkscape:connector-curvature="0"
       style="opacity:0.15100002;fill:#000000;fill-opacity:1;stroke:none;stroke-width:7;stroke-miterlimit:4;stroke-dasharray:none;stroke-opacity:1"
       d="m 928.7968,171.62497 a 5.3149605,5.3149605 0 0 0 5.315,5.31496 5.3149605,5.3149605 0 0 0 5.3149,-5.31496 5.3149605,5.3149605 0 0 0 -5.3149,-5.31496 5.3149605,5.3149605 0 0 0 -5.315,5.31496 z"
       id="path4571" />
    <path
       inkscape:connector-curvature="0"
       style="opacity:0.15100002;fill:#000000;fill-opacity:1;stroke:none;stroke-width:7;stroke-miterlimit:4;stroke-dasharray:none;stroke-opacity:1"
       d="m 503.60003,171.62497 a 5.3149605,5.3149605 0 0 0 5.31496,5.31496 5.3149605,5.3149605 0 0 0 5.31496,-5.31496 5.3149605,5.3149605 0 0 0 -5.31496,-5.31496 5.3149605,5.3149605 0 0 0 -5.31496,5.31496 z"
       id="path4573" />
    <g
       transform="matrix(-1,0,0,1,1370.6539,-25.937119)"
       id="g4591">
      <path
         id="path4593"
         d="m 652.0202,88.805527 a 3.8976383,3.8976381 0 0 1 -3.89764,3.897638 3.8976383,3.8976381 0 0 1 -3.89764,-3.897638 3.8976383,3.8976381 0 0 1 3.89764,-3.897638 3.8976383,3.8976381 0 0 1 3.89764,3.897638 z"
         style="opacity:1;fill:#4aff3c;fill-opacity:0.37278107;stroke:none;stroke-width:0.70866144;stroke-miterlimit:4;stroke-dasharray:none;stroke-opacity:1"
         inkscape:connector-curvature="0" />
      <path
         id="path4595"
         d="m 503.80367,88.805412 a 3.8976383,3.8976381 0 0 1 -3.89763,3.897638 3.8976383,3.8976381 0 0 1 -3.89764,-3.897638 3.8976383,3.8976381 0 0 1 3.89764,-3.897638 3.8976383,3.8976381 0 0 1 3.89763,3.897638 z"
         style="opacity:1;fill:#4aff3c;fill-opacity:0.37278107;stroke:none;stroke-width:0.70866144;stroke-miterlimit:4;stroke-dasharray:none;stroke-opacity:1"
         inkscape:connector-curvature="0" />
    </g>
    <g
       id="g4630"
       transform="translate(2.461483e-5,120.17105)">
      <path
         style="opacity:1;fill:#4aff3c;fill-opacity:0.37278107;stroke:none;stroke-width:0.70866144;stroke-miterlimit:4;stroke-dasharray:none;stroke-opacity:1"
         d="M 737.24111,19.699661 A 17.362207,17.362206 0 0 1 719.87891,37.061867 17.362207,17.362206 0 0 1 702.5167,19.699661 17.362207,17.362206 0 0 1 719.87891,2.3374557 17.362207,17.362206 0 0 1 737.24111,19.699661 Z"
         id="path4616" />
      <path
         style="opacity:1;fill:#4aff3c;fill-opacity:0.37278107;stroke:none;stroke-width:0.70866144;stroke-miterlimit:4;stroke-dasharray:none;stroke-opacity:1"
         d="M 787.24111,19.699661 A 17.362207,17.362206 0 0 1 769.87891,37.061867 17.362207,17.362206 0 0 1 752.5167,19.699661 17.362207,17.362206 0 0 1 769.87891,2.3374557 17.362207,17.362206 0 0 1 787.24111,19.699661 Z"
         id="ellipse4618" />
      <path
         style="opacity:1;fill:#4aff3c;fill-opacity:0.37278107;stroke:none;stroke-width:0.70866144;stroke-miterlimit:4;stroke-dasharray:none;stroke-opacity:1"
         d="M 837.24111,19.699661 A 17.362207,17.362206 0 0 1 819.87891,37.061867 17.362207,17.362206 0 0 1 802.5167,19.699661 17.362207,17.362206 0 0 1 819.87891,2.3374557 17.362207,17.362206 0 0 1 837.24111,19.699661 Z"
         id="ellipse4620" />
      <path
         style="opacity:1;fill:#4aff3c;fill-opacity:0.37278107;stroke:none;stroke-width:0.70866144;stroke-miterlimit:4;stroke-dasharray:none;stroke-opacity:1"
         d="M 887.24111,19.699661 A 17.362207,17.362206 0 0 1 869.87891,37.061867 17.362207,17.362206 0 0 1 852.5167,19.699661 17.362207,17.362206 0 0 1 869.87891,2.3374557 17.362207,17.362206 0 0 1 887.24111,19.699661 Z"
         id="ellipse4622" />
      <path
         style="opacity:1;fill:#4aff3c;fill-opacity:0.37278107;stroke:none;stroke-width:0.70866144;stroke-miterlimit:4;stroke-dasharray:none;stroke-opacity:1"
         d="M 687.24111,19.699659 A 17.362207,17.362206 0 0 1 669.87891,37.061865 17.362207,17.362206 0 0 1 652.5167,19.699659 17.362207,17.362206 0 0 1 669.87891,2.3374538 17.362207,17.362206 0 0 1 687.24111,19.699659 Z"
         id="ellipse4624" />
      <path
         style="opacity:1;fill:#4aff3c;fill-opacity:0.37278107;stroke:none;stroke-width:0.70866144;stroke-miterlimit:4;stroke-dasharray:none;stroke-opacity:1"
         d="M 637.24111,19.699659 A 17.362207,17.362206 0 0 1 619.87891,37.061865 17.362207,17.362206 0 0 1 602.5167,19.699659 17.362207,17.362206 0 0 1 619.87891,2.3374538 17.362207,17.362206 0 0 1 637.24111,19.699659 Z"
         id="ellipse4626" />
      <path
         style="opacity:1;fill:#4aff3c;fill-opacity:0.37278107;stroke:none;stroke-width:0.70866144;stroke-miterlimit:4;stroke-dasharray:none;stroke-opacity:1"
         d="M 587.24105,19.699659 A 17.362207,17.362206 0 0 1 569.87885,37.061865 17.362207,17.362206 0 0 1 552.51664,19.699659 17.362207,17.362206 0 0 1 569.87885,2.3374538 17.362207,17.362206 0 0 1 587.24105,19.699659 Z"
         id="ellipse4628" />
    </g>
  </g>
</svg>
